<svg width="15" height="26" viewBox="0 0 15 26" fill="none" xmlns="http://www.w3.org/2000/svg">
<path d="M0.698283 0.729565C0.251037 1.19168 2.88382e-07 1.8168 2.80612e-07 2.46839C2.72841e-07 3.11998 0.251037 3.7451 0.698283 4.20721L9.19892 13.0617L0.698283 21.7928C0.251037 22.2549 3.72054e-08 22.88 2.94352e-08 23.5316C2.16651e-08 24.1832 0.251037 24.8083 0.698283 25.2704C0.921516 25.5016 1.1871 25.6851 1.47972 25.8103C1.77235 25.9355 2.08621 26 2.40321 26C2.72021 26 3.03408 25.9355 3.3267 25.8103C3.61932 25.6851 3.88491 25.5016 4.10814 25.2704L14.2897 14.8128C14.5148 14.5835 14.6934 14.3107 14.8153 14.0102C14.9372 13.7096 15 13.3873 15 13.0617C15 12.7361 14.9372 12.4137 14.8153 12.1131C14.6934 11.8126 14.5148 11.5398 14.2897 11.3105L4.10814 0.729565C3.88491 0.49839 3.61932 0.314905 3.3267 0.189688C3.03408 0.0644703 2.72021 3.24382e-08 2.40321 2.8658e-08C2.08621 2.48778e-08 1.77235 0.0644703 1.47973 0.189688C1.1871 0.314905 0.921516 0.49839 0.698283 0.729565Z" fill="#6667AB"/>
</svg>
