<svg width="7" height="12" viewBox="0 0 7 12" fill="none" xmlns="http://www.w3.org/2000/svg">
<path d="M0.351339 0.964651C0.165089 1.15201 0.060547 1.40547 0.060547 1.66965C0.060547 1.93384 0.165089 2.18729 0.351339 2.37465L3.89134 5.96465L0.351339 9.50465C0.165088 9.69201 0.0605469 9.94547 0.0605469 10.2097C0.0605469 10.4738 0.165088 10.7273 0.351339 10.9147C0.444302 11.0084 0.554903 11.0828 0.676763 11.1335C0.798622 11.1843 0.929327 11.2104 1.06134 11.2104C1.19335 11.2104 1.32406 11.1843 1.44592 11.1335C1.56778 11.0828 1.67838 11.0084 1.77134 10.9147L6.01134 6.67465C6.10507 6.58169 6.17946 6.47109 6.23023 6.34923C6.281 6.22737 6.30714 6.09666 6.30714 5.96465C6.30714 5.83264 6.281 5.70193 6.23023 5.58007C6.17946 5.45822 6.10507 5.34761 6.01134 5.25465L1.77134 0.964651C1.67838 0.870923 1.56778 0.796529 1.44592 0.74576C1.32406 0.694991 1.19335 0.668852 1.06134 0.668852C0.929328 0.668852 0.798622 0.694991 0.676763 0.74576C0.554903 0.796529 0.444302 0.870923 0.351339 0.964651Z" fill="white"/>
</svg>
