<svg width="9" height="6" viewBox="0 0 9 6" fill="none" xmlns="http://www.w3.org/2000/svg">
<path d="M4.48828 5.07715C4.55013 5.07715 4.60872 5.06576 4.66406 5.04297C4.72266 5.01693 4.77311 4.98112 4.81543 4.93555L8.59473 1.06348C8.68262 0.975586 8.72656 0.871419 8.72656 0.750977C8.72656 0.666341 8.70703 0.589844 8.66797 0.521484C8.62891 0.453125 8.5752 0.399414 8.50684 0.360352C8.44173 0.321289 8.36686 0.301758 8.28223 0.301758C8.16178 0.301758 8.05599 0.344076 7.96484 0.428711L4.22461 4.25195H4.74707L1.00684 0.428711C0.918945 0.344076 0.813151 0.301758 0.689453 0.301758C0.604818 0.301758 0.52832 0.321289 0.459961 0.360352C0.394857 0.399414 0.342773 0.453125 0.303711 0.521484C0.264648 0.589844 0.245117 0.666341 0.245117 0.750977C0.245117 0.812826 0.25651 0.871419 0.279297 0.926758C0.302083 0.978841 0.334635 1.02604 0.376953 1.06836L4.15625 4.93555C4.25391 5.02995 4.36458 5.07715 4.48828 5.07715Z" fill="#29282D"/>
</svg>
