<svg width="24" height="24" viewBox="0 0 24 24" fill="none" xmlns="http://www.w3.org/2000/svg">
<path fill-rule="evenodd" clip-rule="evenodd" d="M13.1135 3.04995H8.44C7.81764 3.04755 7.20995 3.23877 6.7011 3.59711C6.19225 3.95545 5.80745 4.46318 5.6 5.04995L4.24 9.10995C3.60033 9.27746 3.03392 9.65161 2.62883 10.1742C2.22374 10.6969 2.00268 11.3387 2 11.9999V15.9999C2.00174 16.6189 2.19488 17.2221 2.55294 17.727C2.911 18.2319 3.41645 18.6136 4 18.8199V19.9999C4 20.2652 4.10536 20.5195 4.29289 20.7071C4.48043 20.8946 4.73478 20.9999 5 20.9999C5.26522 20.9999 5.51957 20.8946 5.70711 20.7071C5.89464 20.5195 6 20.2652 6 19.9999V18.9999H18V19.9999C18 20.2652 18.1054 20.5195 18.2929 20.7071C18.4804 20.8946 18.7348 20.9999 19 20.9999C19.2652 20.9999 19.5196 20.8946 19.7071 20.7071C19.8946 20.5195 20 20.2652 20 19.9999V18.8199C20.5835 18.6136 21.089 18.2319 21.4471 17.727C21.8051 17.2221 21.9983 16.6189 22 15.9999V11.9999C21.9973 11.3387 21.7763 10.6969 21.3712 10.1742C20.9661 9.65161 20.3997 9.27746 19.76 9.10995V9.07995L19.1781 7.35551C18.6275 7.71357 17.9834 7.93984 17.2905 7.98956L17.61 8.99995H6.39L7.49 5.67995C7.55709 5.48133 7.6849 5.30881 7.85537 5.18679C8.02584 5.06477 8.23036 4.99941 8.44 4.99995H13.126C13.0438 4.68033 13 4.34525 13 3.99995C13 3.67261 13.0393 3.35445 13.1135 3.04995ZM6.28989 13.2898C6.3832 13.1965 6.4959 13.1249 6.62 13.0799C6.80211 13.0034 7.00282 12.9824 7.19681 13.0198C7.3908 13.0572 7.56938 13.1512 7.71 13.2899C7.89273 13.4816 7.99632 13.7352 8 13.9999C8.00338 14.1311 7.97598 14.2613 7.92 14.3799C7.86936 14.5011 7.79833 14.6127 7.71 14.7099C7.6128 14.7983 7.50118 14.8693 7.38 14.9199C7.19827 14.9927 6.99919 15.0105 6.80744 14.9712C6.61569 14.9318 6.43969 14.8371 6.30128 14.6987C6.16287 14.5603 6.06812 14.3843 6.02879 14.1925C5.98945 14.0008 6.00726 13.8017 6.08 13.6199C6.12491 13.4959 6.19657 13.3832 6.28989 13.2898ZM19.7071 16.7071C19.8946 16.5195 20 16.2652 20 15.9999V11.9999C20 11.7347 19.8946 11.4804 19.7071 11.2928C19.5196 11.1053 19.2652 10.9999 19 10.9999H5C4.73478 10.9999 4.48043 11.1053 4.29289 11.2928C4.10536 11.4804 4 11.7347 4 11.9999V15.9999C4 16.2652 4.10536 16.5195 4.29289 16.7071C4.48043 16.8946 4.73478 16.9999 5 16.9999H19C19.2652 16.9999 19.5196 16.8946 19.7071 16.7071ZM16.2899 13.2898C16.3832 13.1965 16.4959 13.1249 16.62 13.0799C16.8021 13.0034 17.0028 12.9824 17.1968 13.0198C17.3908 13.0572 17.5694 13.1512 17.71 13.2899C17.8927 13.4816 17.9963 13.7352 18 13.9999C18.0034 14.1311 17.976 14.2613 17.92 14.3799C17.8751 14.504 17.8034 14.6167 17.7101 14.7101C17.6168 14.8034 17.5041 14.875 17.38 14.9199C17.1983 14.9927 16.9992 15.0105 16.8074 14.9712C16.6157 14.9318 16.4397 14.8371 16.3013 14.6987C16.1629 14.5603 16.0681 14.3843 16.0288 14.1925C15.9895 14.0008 16.0073 13.8017 16.08 13.6199C16.1249 13.4959 16.1966 13.3832 16.2899 13.2898ZM11 12.9999H13C13.2652 12.9999 13.5196 13.1053 13.7071 13.2928C13.8946 13.4804 14 13.7347 14 13.9999C14 14.2652 13.8946 14.5195 13.7071 14.7071C13.5196 14.8946 13.2652 14.9999 13 14.9999H11C10.7348 14.9999 10.4804 14.8946 10.2929 14.7071C10.1054 14.5195 10 14.2652 10 13.9999C10 13.7347 10.1054 13.4804 10.2929 13.2928C10.4804 13.1053 10.7348 12.9999 11 12.9999Z" fill="#6667AB"/>
<path d="M18.5 2H16.5C16.3674 2 16.2402 2.05268 16.1464 2.14645C16.0527 2.24021 16 2.36739 16 2.5C16 2.63261 16.0527 2.75979 16.1464 2.85355C16.2402 2.94732 16.3674 3 16.5 3H17.5C17.8978 3 18.2794 3.15804 18.5607 3.43934C18.842 3.72064 19 4.10218 19 4.5C19 4.89782 18.842 5.27936 18.5607 5.56066C18.2794 5.84196 17.8978 6 17.5 6V6.5C17.5 6.63261 17.4473 6.75979 17.3536 6.85355C17.2598 6.94732 17.1326 7 17 7C16.8674 7 16.7402 6.94732 16.6464 6.85355C16.5527 6.75979 16.5 6.63261 16.5 6.5V6H15.5C15.3674 6 15.2402 5.94732 15.1464 5.85355C15.0527 5.75979 15 5.63261 15 5.5C15 5.36739 15.0527 5.24021 15.1464 5.14645C15.2402 5.05268 15.3674 5 15.5 5H17.5C17.6326 5 17.7598 4.94732 17.8536 4.85355C17.9473 4.75979 18 4.63261 18 4.5C18 4.36739 17.9473 4.24021 17.8536 4.14645C17.7598 4.05268 17.6326 4 17.5 4H16.5C16.1022 4 15.7206 3.84196 15.4393 3.56066C15.158 3.27936 15 2.89782 15 2.5C15 2.10218 15.158 1.72064 15.4393 1.43934C15.7206 1.15804 16.1022 1 16.5 1V0.5C16.5 0.367392 16.5527 0.240215 16.6464 0.146447C16.7402 0.0526785 16.8674 0 17 0C17.1326 0 17.2598 0.0526785 17.3536 0.146447C17.4473 0.240215 17.5 0.367392 17.5 0.5V1H18.5C18.6326 1 18.7598 1.05268 18.8536 1.14645C18.9473 1.24021 19 1.36739 19 1.5C19 1.63261 18.9473 1.75979 18.8536 1.85355C18.7598 1.94732 18.6326 2 18.5 2Z" fill="#6667AB"/>
</svg>
