<svg width="26" height="22" viewBox="0 0 26 22" fill="none" xmlns="http://www.w3.org/2000/svg">
<path d="M24.6417 12.8567L19.279 11.9627L17.7248 9.63159C17.3217 9.0275 16.6479 8.66675 15.9221 8.66675H7.91134C7.18561 8.66675 6.51164 9.0275 6.10856 9.63159L4.54075 11.984L1.23143 12.8112C0.506758 12.9921 0 13.6406 0 14.3876V17.1091C0 17.7476 0.248626 18.348 0.700378 18.7997C1.14579 19.2446 1.7615 19.5001 2.39095 19.5001H3.79171C3.81072 19.5001 3.82681 19.4912 3.84533 19.4893C4.0929 20.7291 5.18807 21.6668 6.50002 21.6668C7.81197 21.6668 8.90714 20.7291 9.15471 19.4893C9.17323 19.4912 9.18932 19.5001 9.20833 19.5001H16.2501C16.2691 19.5001 16.2852 19.4912 16.3037 19.4893C16.5512 20.7291 17.6464 21.6668 18.9584 21.6668C20.2704 21.6668 21.3655 20.7291 21.6131 19.4893C21.6316 19.4912 21.6477 19.5001 21.6667 19.5001H24.0407C24.4533 19.5001 24.8247 19.2711 25.0098 18.9013L25.8858 17.1483C25.9048 17.1102 25.9196 17.07 25.9291 17.0288L25.9863 16.7865C25.9958 16.7463 26 16.705 26 16.6637V14.4595C26.0001 13.6613 25.4288 12.9874 24.6417 12.8567ZM6.50002 20.5834C5.60391 20.5834 4.87502 19.8545 4.87502 18.9584C4.87502 18.0623 5.60391 17.3334 6.50002 17.3334C7.39613 17.3334 8.12503 18.0623 8.12503 18.9584C8.12503 19.8545 7.39613 20.5834 6.50002 20.5834ZM16.9779 14.0834H7.04172C6.85127 14.0834 6.67463 13.9834 6.57729 13.8199C6.47881 13.6565 6.47459 13.4538 6.56453 13.2862L7.72406 11.1195C7.81822 10.9434 8.0012 10.8334 8.20124 10.8334H15.6322C15.8195 10.8334 15.994 10.9301 16.0924 11.0894L17.4381 13.2561C17.5418 13.4233 17.5471 13.6333 17.4508 13.8052C17.3556 13.977 17.1747 14.0834 16.9779 14.0834ZM18.9584 20.5834C18.0623 20.5834 17.3334 19.8545 17.3334 18.9584C17.3334 18.0623 18.0623 17.3334 18.9584 17.3334C19.8545 17.3334 20.5834 18.0623 20.5834 18.9584C20.5834 19.8545 19.8545 20.5834 18.9584 20.5834Z" fill="#6667AB"/>
<path d="M5.65831 4.2424L7.28331 5.32571C7.37212 5.38502 7.47693 5.41671 7.58378 5.41671H12.296C12.9058 6.69421 14.1988 7.58341 15.7087 7.58341C17.8028 7.58341 19.5004 5.88577 19.5004 3.7917C19.5004 1.69764 17.8028 0 15.7087 0C14.1988 0 12.9058 0.889202 12.2959 2.1667H7.58369C7.47685 2.1667 7.37212 2.19847 7.28323 2.2577L5.65822 3.34101C5.50799 3.44152 5.41699 3.61084 5.41699 3.7917C5.41699 3.97257 5.50799 4.14189 5.65831 4.2424ZM16.7921 2.7084C17.3899 2.7084 17.8754 3.19452 17.8754 3.7917C17.8754 4.38889 17.3898 4.87501 16.7921 4.87501C16.1944 4.87501 15.7088 4.38889 15.7088 3.7917C15.7087 3.19452 16.1944 2.7084 16.7921 2.7084Z" fill="#6667AB"/>
</svg>
