<svg viewBox="0 0 32 32" xmlns="http://www.w3.org/2000/svg" xmlns:xlink="http://www.w3.org/1999/xlink" width="32.000000" height="32.000000" fill="none">
	<rect id="bullet_8341453 1" width="32.000000" height="32.000000" x="0.000000" y="0.000000" fill="rgb(255,255,255)" fill-opacity="0" />
	<g id="Group">
		<path id="Vector" d="M26.2745 12.8156C28.5739 10.5934 29.6723 7.41956 29.2339 4.26463C29.1563 3.70695 28.7109 3.2686 28.1485 3.19332C25.0187 2.77425 21.8552 3.805 19.593 5.9914L17.875 7.6518L24.6291 14.4059L26.2745 12.8156Z" fill="rgb(102,103,171)" fill-rule="nonzero" />
		<path id="Vector" d="M4.35051 20.9727L11.1046 27.7267L9.89779 28.9091C9.37262 29.4235 8.52667 29.4192 8.00678 28.8992L3.13833 24.0309C2.61681 23.5093 2.62114 22.6669 3.14798 22.1507L4.35051 20.9727Z" fill="rgb(102,103,171)" fill-rule="nonzero" />
		<path id="Vector" d="M23.8573 15.1135L17.1032 8.35938L5.0625 20.1481L11.8166 26.9023L23.8573 15.1135Z" fill="rgb(102,103,171)" fill-rule="nonzero" />
	</g>
</svg>
