<svg width="22.496094" height="23.291504" viewBox="0 0 22.4961 23.2915" fill="none" xmlns="http://www.w3.org/2000/svg" xmlns:xlink="http://www.w3.org/1999/xlink">
	<desc>
			Created with Pixso.
	</desc>
	<defs/>
	<path id="Vector" d="M1.98047 3.73584C3.20898 2.42627 5.18945 2.42627 9.14844 2.42627L13.3477 2.42627C17.3066 2.42627 19.2852 2.42627 20.5156 3.73584C21.7461 5.04443 21.7461 7.15234 21.7461 11.3662L21.7461 13.6011C21.7461 17.8154 21.7461 19.9229 20.5156 21.2314C19.2852 22.5415 17.3066 22.5415 13.3477 22.5415L9.14844 22.5415C5.18945 22.5415 3.20898 22.5415 1.98047 21.2314C0.75 19.9229 0.75 17.8154 0.75 13.6011L0.75 11.3662C0.75 7.15234 0.75 5.04443 1.98047 3.73584Z" stroke="#6667AB" stroke-opacity="1.000000" stroke-width="1.500000"/>
	<path id="Vector" d="M6 2.42627L6 0.75M16.498 2.42627L16.498 0.75M1.27539 8.01367L21.2207 8.01367" stroke="#6667AB" stroke-opacity="1.000000" stroke-width="1.500000"/>
	<path id="Vector" d="M17.5469 16.9536C17.5469 17.25 17.4355 17.5342 17.2383 17.7441C17.043 17.9536 16.7754 18.0713 16.4961 18.0713C16.2188 18.0713 15.9512 17.9536 15.7539 17.7441C15.5586 17.5342 15.4473 17.25 15.4473 16.9536C15.4473 16.6572 15.5586 16.373 15.7539 16.1636C15.9512 15.9541 16.2188 15.8364 16.4961 15.8364C16.7754 15.8364 17.043 15.9541 17.2383 16.1636C17.4355 16.373 17.5469 16.6572 17.5469 16.9536ZM17.5469 12.4839C17.5469 12.7803 17.4355 13.0645 17.2383 13.2739C17.043 13.4834 16.7754 13.6011 16.4961 13.6011C16.2188 13.6011 15.9512 13.4834 15.7539 13.2739C15.5586 13.0645 15.4473 12.7803 15.4473 12.4839C15.4473 12.1875 15.5586 11.9033 15.7539 11.6934C15.9512 11.4839 16.2188 11.3662 16.4961 11.3662C16.7754 11.3662 17.043 11.4839 17.2383 11.6934C17.4355 11.9033 17.5469 12.1875 17.5469 12.4839ZM12.2969 16.9536C12.2969 17.25 12.1875 17.5342 11.9902 17.7441C11.793 17.9536 11.5254 18.0713 11.248 18.0713C10.9688 18.0713 10.7031 17.9536 10.5059 17.7441C10.3086 17.5342 10.1973 17.25 10.1973 16.9536C10.1973 16.6572 10.3086 16.373 10.5059 16.1636C10.7031 15.9541 10.9688 15.8364 11.248 15.8364C11.5254 15.8364 11.793 15.9541 11.9902 16.1636C12.1875 16.373 12.2969 16.6572 12.2969 16.9536ZM12.2969 12.4839C12.2969 12.7803 12.1875 13.0645 11.9902 13.2739C11.793 13.4834 11.5254 13.6011 11.248 13.6011C10.9688 13.6011 10.7031 13.4834 10.5059 13.2739C10.3086 13.0645 10.1973 12.7803 10.1973 12.4839C10.1973 12.1875 10.3086 11.9033 10.5059 11.6934C10.7031 11.4839 10.9688 11.3662 11.248 11.3662C11.5254 11.3662 11.793 11.4839 11.9902 11.6934C12.1875 11.9033 12.2969 12.1875 12.2969 12.4839ZM7.04883 16.9536C7.04883 17.25 6.9375 17.5342 6.74219 17.7441C6.54492 17.9536 6.27734 18.0713 5.99805 18.0713C5.7207 18.0713 5.45312 17.9536 5.25586 17.7441C5.06055 17.5342 4.94922 17.25 4.94922 16.9536C4.94922 16.6572 5.06055 16.373 5.25586 16.1636C5.45312 15.9541 5.7207 15.8364 5.99805 15.8364C6.27734 15.8364 6.54492 15.9541 6.74219 16.1636C6.9375 16.373 7.04883 16.6572 7.04883 16.9536ZM7.04883 12.4839C7.04883 12.7803 6.9375 13.0645 6.74219 13.2739C6.54492 13.4834 6.27734 13.6011 5.99805 13.6011C5.7207 13.6011 5.45312 13.4834 5.25586 13.2739C5.06055 13.0645 4.94922 12.7803 4.94922 12.4839C4.94922 12.1875 5.06055 11.9033 5.25586 11.6934C5.45312 11.4839 5.7207 11.3662 5.99805 11.3662C6.27734 11.3662 6.54492 11.4839 6.74219 11.6934C6.9375 11.9033 7.04883 12.1875 7.04883 12.4839Z" fill="#000000" fill-opacity="1.000000" fill-rule="nonzero"/>
</svg>
