<svg width="40.000000" height="40.000000" viewBox="0 0 40 40" fill="none" xmlns="http://www.w3.org/2000/svg" xmlns:xlink="http://www.w3.org/1999/xlink">
	<desc>
			Created with Pixso.
	</desc>
	<defs>
		<clipPath id="clip274_4108">
			<rect id="car-repair_3374267 1" rx="0.000000" width="39.958984" height="39.958984" transform="translate(0.020508 0.020508)" fill="white" fill-opacity="0"/>
		</clipPath>
	</defs>
	<rect id="car-repair_3374267 1" rx="0.000000" width="39.958984" height="39.958984" transform="translate(0.020508 0.020508)" fill="#FFFFFF" fill-opacity="0"/>
	<g clip-path="url(#clip274_4108)">
		<mask id="mask4_1269" mask-type="alpha" maskUnits="userSpaceOnUse" x="0.000122" y="0.000000" width="40.000000" height="40.000000">
			<path id="path1143" d="M0 0L40 0L40 40L0 40L0 0Z" fill="#000000" fill-opacity="1.000000" fill-rule="nonzero"/>
		</mask>
		<g mask="url(#mask4_1269)">
			<path id="path1149" d="M2.88 31.94C1.94 31.94 1.17 31.17 1.17 30.22L1.17 24.89C1.17 22.83 2.84 21.15 4.9 21.15L35.09 21.15C37.15 21.15 38.82 22.83 38.82 24.89L38.82 30.22C38.82 31.17 38.05 31.94 37.11 31.94L2.88 31.94Z" stroke="#6667AB" stroke-opacity="1.000000" stroke-width="1.640625" stroke-linejoin="round"/>
			<path id="path1153" d="M5.58 37.34C4.63 37.34 3.86 36.57 3.86 35.62L3.86 31.94L11.96 31.94L11.96 35.62C11.96 36.57 11.19 37.34 10.24 37.34L5.58 37.34Z" stroke="#6667AB" stroke-opacity="1.000000" stroke-width="1.640625" stroke-linejoin="round"/>
			<path id="path1157" d="M29.75 37.34C28.8 37.34 28.03 36.57 28.03 35.62L28.03 31.94L36.13 31.94L36.13 35.62C36.13 36.57 35.36 37.34 34.41 37.34L29.75 37.34Z" stroke="#6667AB" stroke-opacity="1.000000" stroke-width="1.640625" stroke-linejoin="round"/>
			<path id="path1161" d="M1.17 26.55L1.17 24.89C1.17 22.83 2.84 21.15 4.9 21.15L9.26 21.15L9.26 22.81C9.26 24.88 7.59 26.55 5.52 26.55L1.17 26.55Z" stroke="#6667AB" stroke-opacity="1.000000" stroke-width="1.640625" stroke-linejoin="round"/>
			<path id="path1165" d="M34.47 26.55C32.4 26.55 30.73 24.88 30.73 22.81L30.73 21.15L35.09 21.15C37.15 21.15 38.82 22.83 38.82 24.89L38.82 26.55L34.47 26.55Z" stroke="#6667AB" stroke-opacity="1.000000" stroke-width="1.640625" stroke-linejoin="round"/>
			<path id="path1169" d="M3.86 21.15L6.78 12.33C7.17 11.16 8.26 10.36 9.5 10.36L14.37 10.36C15.14 12.73 17.36 14.44 19.98 14.44C22.6 14.44 24.82 12.73 25.58 10.36L29.81 10.36C30.98 10.36 32.03 11.07 32.47 12.15L36.13 21.15L3.86 21.15Z" stroke="#6667AB" stroke-opacity="1.000000" stroke-width="1.640625" stroke-linejoin="round"/>
			<path id="path1173" d="M25.58 10.36C24.82 12.73 22.6 14.44 19.98 14.44C17.36 14.44 15.14 12.73 14.37 10.36C14.19 9.79 14.09 9.18 14.09 8.54C14.09 5.29 16.72 2.65 19.98 2.65C23.23 2.65 25.87 5.29 25.87 8.54C25.87 9.18 25.77 9.79 25.58 10.36Z" stroke="#6667AB" stroke-opacity="1.000000" stroke-width="1.640625" stroke-linejoin="round"/>
			<path id="path1177" d="M18.03 8.54L19.28 9.99L21.95 7.35" stroke="#6667AB" stroke-opacity="1.000000" stroke-width="1.640625" stroke-linejoin="round" stroke-linecap="round"/>
			<path id="path1181" d="M14.55 26.55L25.34 26.55" stroke="#6667AB" stroke-opacity="1.000000" stroke-width="1.640625" stroke-linejoin="round" stroke-linecap="round"/>
		</g>
	</g>
</svg>
