<svg width="60.000000" height="60.000000" viewBox="0 0 60 60" fill="none" xmlns="http://www.w3.org/2000/svg" xmlns:xlink="http://www.w3.org/1999/xlink">
	<desc>
			Created with Pixso.
	</desc>
	<defs>
		<clipPath id="clip239_3619">
			<rect id="camera_7610406 1" rx="0.000000" width="59.000000" height="59.000000" transform="translate(0.500000 0.500000)" fill="white" fill-opacity="0"/>
		</clipPath>
	</defs>
	<rect id="camera_7610406 1" rx="0.000000" width="59.000000" height="59.000000" transform="translate(0.500000 0.500000)" fill="#FFFFFF" fill-opacity="0"/>
	<g clip-path="url(#clip239_3619)">
		<path id="Vector" d="M56.14 12.18L50.71 12.18L47.71 6.44C47.35 5.77 46.83 5.21 46.18 4.81C45.53 4.42 44.78 4.21 44.02 4.21L28.33 4.21C27.57 4.21 26.82 4.42 26.17 4.81C25.52 5.21 24.99 5.77 24.64 6.44L21.64 12.18L16.9 12.18L16.9 9.78C16.9 8.4 16.35 7.07 15.37 6.09C14.39 5.11 13.07 4.57 11.68 4.57C10.3 4.57 8.97 5.11 8 6.09C7.02 7.07 6.47 8.4 6.47 9.78L6.47 12.18L3.85 12.18C2.83 12.18 1.85 12.59 1.13 13.31C0.4 14.04 0 15.02 0 16.04L0 51.92C0 52.94 0.4 53.92 1.13 54.64C1.85 55.37 2.83 55.78 3.85 55.78L56.14 55.78C57.16 55.78 58.14 55.37 58.86 54.64C59.59 53.92 59.99 52.94 60 51.92L60 16.04C59.99 15.02 59.59 14.04 58.86 13.31C58.14 12.59 57.16 12.18 56.14 12.18ZM9.4 9.78C9.4 9.17 9.64 8.59 10.07 8.16C10.5 7.74 11.08 7.5 11.68 7.5C12.29 7.5 12.87 7.74 13.3 8.16C13.73 8.59 13.97 9.17 13.97 9.78L13.97 12.07L9.4 12.07L9.4 9.78ZM57.07 51.92C57.07 52.16 56.97 52.4 56.79 52.57C56.62 52.75 56.38 52.85 56.14 52.85L3.85 52.85C3.61 52.85 3.37 52.75 3.2 52.57C3.02 52.4 2.92 52.16 2.92 51.92L2.92 16.04C2.92 15.8 3.02 15.56 3.2 15.38C3.37 15.21 3.61 15.11 3.85 15.11L22.55 15.11C22.87 15.11 23.18 15.01 23.43 14.82C23.68 14.63 23.87 14.37 23.96 14.06L27.24 7.8C27.34 7.6 27.5 7.44 27.69 7.32C27.88 7.2 28.1 7.14 28.33 7.14L44.02 7.14C44.25 7.14 44.47 7.2 44.66 7.32C44.85 7.44 45.01 7.6 45.11 7.8L48.53 14.33C48.65 14.56 48.84 14.76 49.07 14.9C49.3 15.04 49.56 15.11 49.83 15.11C49.83 15.11 49.84 15.11 49.84 15.11C49.85 15.11 49.85 15.11 49.86 15.11L56.14 15.11C56.38 15.11 56.62 15.21 56.79 15.38C56.97 15.56 57.07 15.8 57.07 16.04L57.07 51.92Z" fill="#6667AB" fill-opacity="1.000000" fill-rule="nonzero"/>
		<path id="Vector" d="M36.17 14.94C26.35 14.94 18.36 22.93 18.36 32.75C18.36 42.57 26.35 50.56 36.17 50.56C46 50.56 53.99 42.57 53.99 32.75C53.99 22.93 46 14.94 36.17 14.94ZM36.17 47.63C33.23 47.63 30.35 46.76 27.91 45.12C25.46 43.49 23.55 41.16 22.42 38.44C21.3 35.72 21 32.73 21.58 29.85C22.15 26.96 23.57 24.31 25.65 22.23C27.73 20.14 30.38 18.73 33.27 18.15C36.16 17.58 39.15 17.87 41.87 19C44.59 20.13 46.91 22.03 48.55 24.48C50.18 26.93 51.06 29.81 51.06 32.75C51.05 36.69 49.48 40.48 46.69 43.27C43.9 46.06 40.12 47.63 36.17 47.63Z" fill="#6667AB" fill-opacity="1.000000" fill-rule="nonzero"/>
		<path id="Vector" d="M36.18 20.53C33.76 20.53 31.4 21.25 29.39 22.59C27.38 23.93 25.81 25.84 24.89 28.07C23.96 30.31 23.72 32.76 24.19 35.13C24.66 37.5 25.83 39.68 27.53 41.39C29.24 43.1 31.42 44.26 33.79 44.73C36.16 45.21 38.62 44.96 40.85 44.04C43.08 43.11 44.99 41.55 46.34 39.54C47.68 37.53 48.39 35.17 48.39 32.75C48.39 29.51 47.1 26.4 44.81 24.11C42.52 21.82 39.41 20.53 36.18 20.53ZM36.18 42.04C34.34 42.04 32.54 41.49 31.01 40.47C29.49 39.45 28.3 38 27.59 36.3C26.89 34.61 26.71 32.74 27.06 30.94C27.42 29.13 28.31 27.48 29.61 26.18C30.91 24.88 32.56 24 34.36 23.64C36.16 23.28 38.03 23.46 39.73 24.17C41.43 24.87 42.88 26.06 43.9 27.59C44.92 29.12 45.46 30.91 45.46 32.75C45.46 35.21 44.48 37.57 42.74 39.31C41 41.06 38.64 42.04 36.18 42.04Z" fill="#6667AB" fill-opacity="1.000000" fill-rule="nonzero"/>
		<path id="Vector" d="M15.96 18.63L7.41 18.63C7.02 18.63 6.64 18.78 6.37 19.06C6.09 19.33 5.94 19.7 5.94 20.09C5.94 20.48 6.09 20.85 6.37 21.13C6.64 21.4 7.02 21.56 7.41 21.56L15.96 21.56C16.35 21.56 16.72 21.4 17 21.13C17.27 20.85 17.42 20.48 17.42 20.09C17.42 19.7 17.27 19.33 17 19.06C16.72 18.78 16.35 18.63 15.96 18.63Z" fill="#6667AB" fill-opacity="1.000000" fill-rule="nonzero"/>
	</g>
</svg>
