<svg width="40.000000" height="40.000000" viewBox="0 0 40 40" fill="none" xmlns="http://www.w3.org/2000/svg" xmlns:xlink="http://www.w3.org/1999/xlink">
	<desc>
			Created with Pixso.
	</desc>
	<defs>
		<clipPath id="clip239_3575">
			<rect id="clock" rx="0.000000" width="38.529411" height="38.529411" transform="translate(0.735294 0.735294)" fill="white" fill-opacity="0"/>
		</clipPath>
	</defs>
	<rect id="clock" rx="0.000000" width="38.529411" height="38.529411" transform="translate(0.735294 0.735294)" fill="#FFFFFF" fill-opacity="0"/>
	<g clip-path="url(#clip239_3575)">
		<path id="Vector (Stroke)" d="M19.99 5C11.71 5 4.99 11.71 4.99 20C4.99 28.28 11.71 35 19.99 35C28.28 35 34.99 28.28 34.99 20C34.99 11.71 28.28 5 19.99 5ZM1.66 20C1.66 9.87 9.87 1.66 19.99 1.66C30.12 1.66 38.33 9.87 38.33 20C38.33 30.12 30.12 38.33 19.99 38.33C9.87 38.33 1.66 30.12 1.66 20Z" fill="#6667AB" fill-opacity="1.000000" fill-rule="evenodd"/>
		<path id="Vector (Stroke)" d="M19.99 8.33C20.91 8.33 21.66 9.07 21.66 9.99L21.66 18.96L27.41 21.84C28.23 22.25 28.56 23.25 28.15 24.07C27.74 24.9 26.74 25.23 25.92 24.82L19.25 21.49C18.68 21.2 18.33 20.63 18.33 19.99L18.33 9.99C18.33 9.07 19.07 8.33 19.99 8.33Z" fill="#6667AB" fill-opacity="1.000000" fill-rule="evenodd"/>
	</g>
</svg>
