<svg width="60.000000" height="60.000000" viewBox="0 0 60 60" fill="none" xmlns="http://www.w3.org/2000/svg" xmlns:xlink="http://www.w3.org/1999/xlink">
	<desc>
			Created with Pixso.
	</desc>
	<defs>
		<clipPath id="clip239_3638">
			<rect id="connect 1" rx="0.000000" width="59.000000" height="59.000000" transform="translate(0.500000 0.500000)" fill="white" fill-opacity="0"/>
		</clipPath>
	</defs>
	<rect id="connect 1" rx="0.000000" width="59.000000" height="59.000000" transform="translate(0.500000 0.500000)" fill="#FFFFFF" fill-opacity="0"/>
	<g clip-path="url(#clip239_3638)">
		<path id="Vector" d="M29.98 14.08C30.95 14.08 31.9 13.79 32.71 13.25C33.52 12.71 34.15 11.94 34.52 11.04C34.89 10.15 34.99 9.16 34.8 8.21C34.61 7.26 34.14 6.38 33.45 5.7C32.77 5.01 31.89 4.54 30.94 4.35C29.99 4.16 29 4.26 28.1 4.63C27.21 5 26.44 5.63 25.9 6.44C25.36 7.25 25.07 8.2 25.07 9.17C25.07 10.47 25.59 11.72 26.51 12.64C27.43 13.56 28.68 14.07 29.98 14.08ZM29.98 7.18C30.37 7.18 30.76 7.3 31.08 7.52C31.41 7.73 31.67 8.04 31.82 8.41C31.97 8.77 32 9.17 31.93 9.55C31.85 9.94 31.66 10.29 31.39 10.57C31.11 10.85 30.75 11.04 30.37 11.11C29.98 11.19 29.59 11.15 29.22 11C28.86 10.85 28.55 10.6 28.33 10.27C28.11 9.94 28 9.56 28 9.17C28 8.64 28.21 8.14 28.58 7.76C28.95 7.39 29.46 7.18 29.98 7.18Z" fill="#6667AB" fill-opacity="1.000000" fill-rule="nonzero"/>
		<path id="Vector" d="M29.98 24.47C32.4 24.47 34.77 23.76 36.78 22.41C38.79 21.07 40.36 19.16 41.29 16.92C42.21 14.68 42.46 12.22 41.98 9.85C41.51 7.48 40.35 5.29 38.63 3.58C36.92 1.87 34.74 0.71 32.37 0.23C30 -0.24 27.53 0 25.3 0.93C23.06 1.86 21.15 3.43 19.81 5.44C18.46 7.45 17.75 9.82 17.75 12.24C17.75 15.48 19.04 18.59 21.33 20.88C23.63 23.18 26.74 24.47 29.98 24.47ZM24.99 20.09C25.14 19.43 25.5 18.84 26.03 18.42C26.55 18 27.21 17.77 27.88 17.77L32.08 17.77C32.76 17.77 33.41 18 33.94 18.42C34.46 18.84 34.83 19.43 34.97 20.09C33.48 21.04 31.75 21.55 29.98 21.55C28.21 21.55 26.48 21.04 24.99 20.09L24.99 20.09ZM29.98 2.92C31.73 2.92 33.44 3.41 34.93 4.34C36.41 5.27 37.6 6.59 38.36 8.17C39.12 9.74 39.43 11.5 39.24 13.24C39.05 14.97 38.38 16.62 37.29 18C36.79 17.05 36.04 16.25 35.13 15.69C34.21 15.14 33.16 14.85 32.08 14.84L27.88 14.84C26.81 14.85 25.76 15.14 24.84 15.69C23.92 16.25 23.17 17.05 22.67 18C21.59 16.62 20.91 14.97 20.72 13.24C20.53 11.5 20.84 9.74 21.6 8.17C22.36 6.59 23.56 5.27 25.04 4.34C26.52 3.41 28.23 2.92 29.98 2.92L29.98 2.92Z" fill="#6667AB" fill-opacity="1.000000" fill-rule="nonzero"/>
		<path id="Vector" d="M12.23 39.78C11.26 39.78 10.31 40.06 9.5 40.6C8.7 41.14 8.07 41.91 7.7 42.81C7.33 43.7 7.23 44.69 7.42 45.64C7.61 46.59 8.07 47.47 8.76 48.15C9.45 48.84 10.32 49.31 11.27 49.5C12.23 49.69 13.21 49.59 14.11 49.22C15.01 48.85 15.77 48.22 16.31 47.41C16.85 46.6 17.14 45.65 17.14 44.68C17.14 43.38 16.62 42.13 15.7 41.21C14.78 40.29 13.53 39.78 12.23 39.78ZM12.23 46.67C11.84 46.67 11.46 46.55 11.13 46.33C10.8 46.12 10.55 45.81 10.4 45.44C10.25 45.08 10.21 44.68 10.29 44.3C10.36 43.91 10.55 43.56 10.83 43.28C11.11 43 11.46 42.81 11.84 42.74C12.23 42.66 12.63 42.7 12.99 42.85C13.35 43 13.66 43.25 13.88 43.58C14.1 43.91 14.22 44.29 14.22 44.68C14.22 45.21 14.01 45.71 13.63 46.09C13.26 46.46 12.76 46.67 12.23 46.67Z" fill="#6667AB" fill-opacity="1.000000" fill-rule="nonzero"/>
		<path id="Vector" d="M12.23 35.52C9.81 35.52 7.45 36.24 5.43 37.58C3.42 38.92 1.85 40.84 0.93 43.07C0 45.31 -0.24 47.77 0.23 50.14C0.7 52.52 1.87 54.7 3.58 56.41C5.29 58.12 7.47 59.28 9.84 59.76C12.22 60.23 14.68 59.99 16.91 59.06C19.15 58.13 21.06 56.56 22.41 54.55C23.75 52.54 24.47 50.17 24.47 47.75C24.46 44.51 23.17 41.4 20.88 39.11C18.59 36.81 15.48 35.52 12.23 35.52ZM7.24 55.61C7.39 54.95 7.75 54.36 8.28 53.94C8.8 53.52 9.46 53.29 10.13 53.29L14.33 53.29C15.01 53.29 15.66 53.52 16.19 53.94C16.71 54.36 17.08 54.95 17.22 55.61C15.73 56.56 14 57.07 12.23 57.07C10.46 57.07 8.73 56.56 7.24 55.61L7.24 55.61ZM19.54 53.51C19.04 52.56 18.29 51.77 17.38 51.21C16.46 50.66 15.41 50.36 14.33 50.36L10.13 50.36C9.06 50.36 8.01 50.66 7.09 51.21C6.17 51.77 5.42 52.56 4.92 53.51C3.84 52.14 3.16 50.49 2.97 48.75C2.78 47.01 3.09 45.26 3.85 43.68C4.61 42.11 5.8 40.78 7.29 39.85C8.77 38.92 10.48 38.43 12.23 38.43C13.98 38.43 15.69 38.92 17.18 39.85C18.66 40.78 19.85 42.11 20.61 43.68C21.37 45.26 21.68 47.01 21.49 48.75C21.3 50.49 20.63 52.14 19.54 53.51L19.54 53.51Z" fill="#6667AB" fill-opacity="1.000000" fill-rule="nonzero"/>
		<path id="Vector" d="M47.76 39.78C46.79 39.78 45.84 40.06 45.03 40.6C44.22 41.14 43.6 41.91 43.22 42.81C42.85 43.7 42.76 44.69 42.94 45.64C43.13 46.59 43.6 47.47 44.29 48.15C44.97 48.84 45.85 49.31 46.8 49.5C47.75 49.69 48.74 49.59 49.64 49.22C50.53 48.85 51.3 48.22 51.84 47.41C52.38 46.6 52.67 45.65 52.67 44.68C52.67 43.38 52.15 42.13 51.23 41.21C50.31 40.29 49.06 39.78 47.76 39.78ZM47.76 46.67C47.37 46.67 46.98 46.55 46.66 46.33C46.33 46.12 46.08 45.81 45.93 45.44C45.78 45.08 45.74 44.68 45.81 44.3C45.89 43.91 46.08 43.56 46.36 43.28C46.63 43 46.99 42.81 47.37 42.74C47.76 42.66 48.16 42.7 48.52 42.85C48.88 43 49.19 43.25 49.41 43.58C49.63 43.91 49.74 44.29 49.74 44.68C49.74 45.21 49.53 45.71 49.16 46.09C48.79 46.46 48.29 46.67 47.76 46.67Z" fill="#6667AB" fill-opacity="1.000000" fill-rule="nonzero"/>
		<path id="Vector" d="M47.76 35.52C45.34 35.52 42.97 36.23 40.96 37.58C38.95 38.92 37.38 40.83 36.45 43.07C35.53 45.31 35.29 47.77 35.76 50.14C36.23 52.51 37.4 54.7 39.11 56.41C40.82 58.12 43 59.28 45.37 59.76C47.75 60.23 50.21 59.99 52.44 59.06C54.68 58.13 56.59 56.56 57.93 54.55C59.28 52.54 60 50.17 60 47.75C59.99 44.51 58.7 41.4 56.41 39.11C54.11 36.81 51 35.52 47.76 35.52ZM42.77 55.61C42.91 54.95 43.28 54.36 43.8 53.94C44.33 53.52 44.98 53.29 45.66 53.29L49.86 53.29C50.53 53.29 51.19 53.52 51.71 53.94C52.24 54.36 52.61 54.95 52.75 55.61C51.26 56.56 49.53 57.07 47.76 57.07C45.99 57.07 44.26 56.56 42.77 55.61L42.77 55.61ZM55.07 53.51C54.57 52.56 53.82 51.77 52.9 51.21C51.99 50.66 50.93 50.36 49.86 50.36L45.66 50.36C44.59 50.36 43.53 50.66 42.61 51.21C41.7 51.77 40.95 52.56 40.45 53.51C39.37 52.14 38.69 50.49 38.5 48.75C38.31 47.01 38.62 45.26 39.38 43.68C40.14 42.11 41.33 40.78 42.81 39.85C44.3 38.92 46.01 38.43 47.76 38.43C49.51 38.43 51.22 38.92 52.7 39.85C54.19 40.78 55.38 42.11 56.14 43.68C56.9 45.26 57.21 47.01 57.02 48.75C56.83 50.49 56.15 52.14 55.07 53.51Z" fill="#6667AB" fill-opacity="1.000000" fill-rule="nonzero"/>
		<path id="Vector" d="M32.68 43.31L27.29 43.31C27.09 43.31 26.9 43.35 26.72 43.42C26.54 43.49 26.38 43.6 26.24 43.74C26.11 43.87 26 44.03 25.92 44.21C25.85 44.39 25.81 44.58 25.81 44.77C25.81 44.97 25.85 45.16 25.92 45.34C26 45.51 26.11 45.68 26.24 45.81C26.38 45.95 26.54 46.06 26.72 46.13C26.9 46.2 27.09 46.24 27.29 46.24L32.68 46.24C32.87 46.24 33.06 46.2 33.24 46.13C33.42 46.06 33.58 45.95 33.72 45.81C33.86 45.68 33.97 45.51 34.04 45.34C34.12 45.16 34.15 44.97 34.15 44.77C34.15 44.58 34.12 44.39 34.04 44.21C33.97 44.03 33.86 43.87 33.72 43.74C33.58 43.6 33.42 43.49 33.24 43.42C33.06 43.35 32.87 43.31 32.68 43.31Z" fill="#6667AB" fill-opacity="1.000000" fill-rule="nonzero"/>
		<path id="Vector" d="M40.76 35.6C41.02 35.6 41.27 35.53 41.49 35.4C41.71 35.27 41.9 35.09 42.02 34.87C42.15 34.65 42.22 34.39 42.22 34.14C42.22 33.88 42.15 33.63 42.02 33.41L37.58 25.7C37.38 25.37 37.06 25.13 36.69 25.04C36.32 24.94 35.92 24.99 35.59 25.19C35.26 25.38 35.01 25.69 34.91 26.06C34.81 26.43 34.86 26.83 35.04 27.17L39.49 34.87C39.62 35.09 39.8 35.28 40.03 35.4C40.25 35.53 40.5 35.6 40.76 35.6Z" fill="#6667AB" fill-opacity="1.000000" fill-rule="nonzero"/>
		<path id="Vector" d="M24.71 24.62C24.54 24.52 24.36 24.46 24.17 24.43C23.98 24.41 23.78 24.42 23.6 24.47C23.41 24.52 23.24 24.61 23.09 24.72C22.93 24.84 22.81 24.98 22.71 25.15L17.78 33.68C17.59 34.02 17.54 34.42 17.64 34.79C17.74 35.17 17.98 35.49 18.32 35.68C18.66 35.87 19.05 35.93 19.43 35.83C19.8 35.73 20.12 35.48 20.32 35.15L25.24 26.61C25.34 26.45 25.4 26.26 25.43 26.07C25.45 25.88 25.44 25.69 25.39 25.5C25.34 25.32 25.25 25.14 25.14 24.99C25.02 24.84 24.87 24.71 24.71 24.62Z" fill="#6667AB" fill-opacity="1.000000" fill-rule="nonzero"/>
	</g>
</svg>
