<svg width="40.000000" height="40.000000" viewBox="0 0 40 40" fill="none" xmlns="http://www.w3.org/2000/svg" xmlns:xlink="http://www.w3.org/1999/xlink">
	<desc>
			Created with Pixso.
	</desc>
	<defs>
		<clipPath id="clip274_4086">
			<rect id="customer-service_5803264 1" rx="0.000000" width="39.945312" height="39.945312" transform="translate(0.027344 0.027344)" fill="white" fill-opacity="0"/>
		</clipPath>
	</defs>
	<rect id="customer-service_5803264 1" rx="0.000000" width="39.945312" height="39.945312" transform="translate(0.027344 0.027344)" fill="#FFFFFF" fill-opacity="0"/>
	<g clip-path="url(#clip274_4086)">
		<path id="Vector" d="M36.32 15.7L35.5 15.7C34.9 7.67 28.17 1.32 20 1.32C11.82 1.32 5.09 7.67 4.49 15.7L3.67 15.7C1.64 15.7 0 17.35 0 19.37L0 24.37C0 26.39 1.64 28.04 3.67 28.04L4.64 28.04C5.01 29.13 5.87 29.98 6.95 30.35L6.95 32.5C6.95 34.52 8.6 36.17 10.62 36.17L15.89 36.17C16.38 37.62 17.76 38.67 19.37 38.67L20.62 38.67C22.64 38.67 24.29 37.02 24.29 35C24.29 32.97 22.64 31.32 20.62 31.32L19.37 31.32C17.76 31.32 16.38 32.37 15.89 33.82L10.62 33.82C9.89 33.82 9.29 33.23 9.29 32.5L9.29 30.35C10.74 29.86 11.79 28.48 11.79 26.87L11.79 16.87C11.79 14.51 9.59 12.76 7.28 13.3C8.85 7.75 13.95 3.67 20 3.67C26.04 3.67 31.14 7.75 32.71 13.3C30.41 12.76 28.2 14.51 28.2 16.87L28.2 26.87C28.2 28.89 29.85 30.54 31.87 30.54C33.48 30.54 34.86 29.49 35.35 28.04L36.32 28.04C38.35 28.04 40 26.39 40 24.37L40 19.37C40 17.35 38.35 15.7 36.32 15.7ZM4.45 25.7L3.67 25.7C2.93 25.7 2.34 25.1 2.34 24.37L2.34 19.37C2.34 18.64 2.93 18.04 3.67 18.04L4.45 18.04L4.45 25.7ZM19.37 33.67L20.62 33.67C21.35 33.67 21.95 34.26 21.95 35C21.95 35.73 21.35 36.32 20.62 36.32L19.37 36.32C18.64 36.32 18.04 35.73 18.04 35C18.04 34.26 18.64 33.67 19.37 33.67ZM8.12 15.54C8.85 15.54 9.45 16.14 9.45 16.87L9.45 26.87C9.45 27.6 8.85 28.2 8.12 28.2C7.39 28.2 6.79 27.6 6.79 26.87L6.79 16.87C6.79 16.14 7.39 15.54 8.12 15.54ZM31.87 28.2C31.14 28.2 30.54 27.6 30.54 26.87L30.54 16.87C30.54 16.14 31.14 15.54 31.87 15.54C32.6 15.54 33.2 16.14 33.2 16.87L33.2 26.87C33.2 27.6 32.6 28.2 31.87 28.2ZM37.65 24.37C37.65 25.1 37.06 25.7 36.32 25.7L35.54 25.7L35.54 18.04L36.32 18.04C37.06 18.04 37.65 18.64 37.65 19.37L37.65 24.37Z" fill="#6667AB" fill-opacity="1.000000" fill-rule="nonzero"/>
		<path id="Vector" d="M16.79 21.87C16.79 22.52 16.27 23.04 15.62 23.04C14.97 23.04 14.45 22.52 14.45 21.87C14.45 21.22 14.97 20.7 15.62 20.7C16.27 20.7 16.79 21.22 16.79 21.87Z" fill="#6667AB" fill-opacity="1.000000" fill-rule="evenodd"/>
		<path id="Vector" d="M21.17 21.87C21.17 22.52 20.64 23.04 20 23.04C19.35 23.04 18.82 22.52 18.82 21.87C18.82 21.22 19.35 20.7 20 20.7C20.64 20.7 21.17 21.22 21.17 21.87Z" fill="#6667AB" fill-opacity="1.000000" fill-rule="evenodd"/>
		<path id="Vector" d="M25.54 21.87C25.54 22.52 25.02 23.04 24.37 23.04C23.72 23.04 23.2 22.52 23.2 21.87C23.2 21.22 23.72 20.7 24.37 20.7C25.02 20.7 25.54 21.22 25.54 21.87Z" fill="#6667AB" fill-opacity="1.000000" fill-rule="evenodd"/>
	</g>
</svg>
