<svg viewBox="0 0 32 32" xmlns="http://www.w3.org/2000/svg" xmlns:xlink="http://www.w3.org/1999/xlink" width="32.000000" height="32.000000" fill="none">
	<rect id="drone_17857662 1" width="32.000000" height="32.000000" x="0.000000" y="0.000000" fill="rgb(255,255,255)" fill-opacity="0" />
	<g id="_x34_6_Drone">
		<g id="Group">
			<path id="Vector" d="M31.0067 10.6241C31.1945 10.6241 31.3463 10.4724 31.3463 10.2846C31.3463 10.0967 31.1945 9.945 31.0067 9.945L29.1006 9.945L29.1006 8.74972C29.1006 8.56186 28.9467 8.41016 28.761 8.41016C28.5732 8.41016 28.4215 8.56186 28.4215 8.74972L28.4215 9.945L26.5131 9.945C26.3253 9.945 26.1735 10.0967 26.1735 10.2846C26.1735 10.4724 26.3253 10.6241 26.5131 10.6241L28.4215 10.6241L28.4215 11.7311L27.2466 11.7311C26.7779 11.7311 26.3954 12.1114 26.3954 12.5823L26.3954 14.1149L22.1734 14.1149C21.6165 13.3316 20.7789 12.7498 19.7919 12.537L18.4042 12.2404C16.8105 11.8964 15.192 11.8964 13.5982 12.2404L12.206 12.5393C11.2212 12.7521 10.3882 13.3316 9.82903 14.1149L5.60708 14.1149L5.60708 12.5823C5.60708 12.1114 5.22449 11.7311 4.75587 11.7311L3.5811 11.7311L3.5811 10.6241L5.48945 10.6241C5.67732 10.6241 5.82902 10.4724 5.82902 10.2846C5.82902 10.0967 5.67739 9.945 5.48945 9.945L3.5811 9.945L3.5811 8.74972C3.5811 8.56186 3.42946 8.41016 3.24153 8.41016C3.05588 8.41016 2.90196 8.56186 2.90196 8.74972L2.90196 9.945L0.995818 9.945C0.807954 9.945 0.65625 10.0967 0.65625 10.2846C0.65625 10.4724 0.807885 10.6241 0.995818 10.6241L2.90189 10.6241L2.90189 11.7311L1.72933 11.7311C1.26071 11.7311 0.878126 12.1114 0.878126 12.5823L0.878126 16.442C0.878126 17.7437 1.93756 18.8009 3.24603 18.8009C4.31004 18.8009 5.21098 18.0923 5.50525 17.1234L9.15897 17.1234C9.2563 17.6463 9.45781 18.1489 9.76114 18.5994L11.4748 21.1642C12.4845 22.6832 14.1755 23.591 16.0024 23.591C17.8315 23.591 19.527 22.6832 20.5367 21.1642L22.2504 18.5971C22.5493 18.1443 22.7484 17.644 22.8435 17.1233L26.4973 17.1233C26.7916 18.0922 27.6925 18.8008 28.7633 18.8008C30.0649 18.8008 31.1244 17.7436 31.1244 16.442L31.1244 12.5822C31.1244 12.1113 30.7418 11.731 30.2732 11.731L29.1006 11.731L29.1006 10.6241L31.0067 10.6241L31.0067 10.6241ZM9.09108 16.408L9.09108 16.4443L5.60715 16.4443L5.60715 14.794L9.43744 14.794C9.21556 15.292 9.09108 15.8376 9.09108 16.408ZM16.0046 20.7953C14.2118 20.7953 12.7539 19.3419 12.7539 17.5513C12.7539 15.7629 14.2118 14.3095 16.0046 14.3095C17.793 14.3095 19.2486 15.7629 19.2486 17.5513C19.2486 19.3419 17.793 20.7953 16.0046 20.7953ZM26.3954 16.4443L22.9114 16.4443L22.9114 16.3989C22.9114 15.833 22.7892 15.2897 22.5651 14.794L26.3954 14.794L26.3954 16.4443Z" fill="rgb(102,103,171)" fill-rule="nonzero" />
			<path id="Vector" d="M18.3117 17.5528C18.3117 18.8274 17.275 19.8619 16.0027 19.8619C14.7282 19.8619 13.6914 18.8274 13.6914 17.5528C13.6914 16.2806 14.7282 15.2461 16.0027 15.2461C17.2749 15.246 18.3117 16.2806 18.3117 17.5528Z" fill="rgb(102,103,171)" fill-rule="nonzero" />
		</g>
	</g>
</svg>
