<svg width="28.000000" height="28.000000" viewBox="0 0 28 28" fill="none" xmlns="http://www.w3.org/2000/svg" xmlns:xlink="http://www.w3.org/1999/xlink">
	<desc>
			Created with Pixso.
	</desc>
	<defs>
		<clipPath id="clip239_3170">
			<rect id="eye" rx="0.000000" width="27.000000" height="27.000000" transform="translate(0.500000 0.500000)" fill="white" fill-opacity="0"/>
		</clipPath>
	</defs>
	<rect id="eye" rx="0.000000" width="27.000000" height="27.000000" transform="translate(0.500000 0.500000)" fill="#FFFFFF" fill-opacity="0"/>
	<g clip-path="url(#clip239_3170)">
		<path id="Vector (Stroke)" d="M2.49 14C2.62 14.22 2.79 14.5 3 14.82C3.54 15.65 4.33 16.76 5.37 17.86C7.46 20.09 10.38 22.16 14 22.16C17.61 22.16 20.53 20.09 22.62 17.86C23.66 16.76 24.45 15.65 24.99 14.82C25.2 14.5 25.37 14.22 25.5 14C25.37 13.77 25.2 13.49 24.99 13.17C24.45 12.34 23.66 11.23 22.62 10.13C20.53 7.9 17.61 5.83 14 5.83C10.38 5.83 7.46 7.9 5.37 10.13C4.33 11.23 3.54 12.34 3 13.17C2.79 13.49 2.62 13.77 2.49 14ZM26.83 14C27.87 13.47 27.87 13.47 27.87 13.47L27.87 13.47L27.87 13.46L27.85 13.43C27.84 13.41 27.83 13.38 27.81 13.34C27.76 13.27 27.71 13.16 27.63 13.02C27.47 12.75 27.25 12.36 26.95 11.9C26.36 10.99 25.48 9.76 24.33 8.53C22.04 6.09 18.54 3.5 14 3.5C9.45 3.5 5.95 6.09 3.66 8.53C2.51 9.76 1.63 10.99 1.04 11.9C0.74 12.36 0.52 12.75 0.36 13.02C0.28 13.16 0.23 13.27 0.18 13.34C0.16 13.38 0.15 13.41 0.14 13.43L0.12 13.46L0.12 13.47L0.12 13.47C0.12 13.47 0.12 13.47 1.16 14L0.12 13.47C-0.05 13.8 -0.05 14.19 0.12 14.52L1.16 14C0.12 14.52 0.12 14.52 0.12 14.52L0.12 14.52L0.12 14.53L0.14 14.56C0.15 14.58 0.16 14.61 0.18 14.65C0.23 14.72 0.28 14.83 0.36 14.97C0.52 15.24 0.74 15.63 1.04 16.09C1.63 17 2.51 18.23 3.66 19.46C5.95 21.9 9.45 24.5 14 24.5C18.54 24.5 22.04 21.9 24.33 19.46C25.48 18.23 26.36 17 26.95 16.09C27.25 15.63 27.47 15.24 27.63 14.97C27.71 14.83 27.76 14.72 27.81 14.65C27.83 14.61 27.84 14.58 27.85 14.56L27.87 14.53L27.87 14.52L27.87 14.52C27.87 14.52 27.87 14.52 26.83 14ZM26.83 14L27.87 14.52C28.04 14.19 28.04 13.8 27.87 13.47L26.83 14Z" fill="#6667AB" fill-opacity="1.000000" fill-rule="evenodd"/>
		<path id="Vector (Stroke)" d="M14 11.66C12.71 11.66 11.66 12.71 11.66 13.99C11.66 15.28 12.71 16.33 14 16.33C15.29 16.33 16.33 15.28 16.33 13.99C16.33 12.71 15.29 11.66 14 11.66ZM9.33 13.99C9.33 11.42 11.42 9.33 14 9.33C16.58 9.33 18.66 11.42 18.66 13.99C18.66 16.57 16.58 18.66 14 18.66C11.42 18.66 9.33 16.57 9.33 13.99Z" fill="#6667AB" fill-opacity="1.000000" fill-rule="evenodd"/>
	</g>
</svg>
