<svg width="40.000000" height="40.000000" viewBox="0 0 40 40" fill="none" xmlns="http://www.w3.org/2000/svg" xmlns:xlink="http://www.w3.org/1999/xlink">
	<desc>
			Created with Pixso.
	</desc>
	<defs>
		<clipPath id="clip274_471">
			<rect id="high-five_1534337 1" rx="0.000000" width="39.958984" height="39.958984" transform="translate(0.020508 0.020508)" fill="white" fill-opacity="0"/>
		</clipPath>
	</defs>
	<rect id="high-five_1534337 1" rx="0.000000" width="39.958984" height="39.958984" transform="translate(0.020508 0.020508)" fill="#FFFFFF" fill-opacity="0"/>
	<g clip-path="url(#clip274_471)">
		<mask id="mask4_1370" mask-type="alpha" maskUnits="userSpaceOnUse" x="0.000122" y="0.000000" width="40.000000" height="40.000000">
			<path id="path1593" d="M0 0L40 0L40 40L0 40L0 0Z" fill="#000000" fill-opacity="1.000000" fill-rule="nonzero"/>
		</mask>
		<g mask="url(#mask4_1370)">
			<path id="path1599" d="M20 3.51L17.65 3.51" stroke="#6667AB" stroke-opacity="1.000000" stroke-width="1.640625" stroke-linejoin="round" stroke-linecap="round"/>
			<path id="path1603" d="M24.68 5.85L27.03 3.51" stroke="#6667AB" stroke-opacity="1.000000" stroke-width="1.640625" stroke-linejoin="round" stroke-linecap="round"/>
			<path id="path1607" d="M15.31 5.85L12.96 3.51" stroke="#6667AB" stroke-opacity="1.000000" stroke-width="1.640625" stroke-linejoin="round" stroke-linecap="round"/>
			<path id="path1611" d="M5.85 20.07C3.91 20.07 2.34 18.5 2.34 16.56C2.34 14.62 3.91 13.04 5.85 13.04C7.8 13.04 9.37 14.62 9.37 16.56C9.37 18.5 7.8 20.07 5.85 20.07Z" stroke="#6667AB" stroke-opacity="1.000000" stroke-width="1.640625" stroke-linejoin="round"/>
			<path id="path1615" d="M10.54 38.82L1.17 38.82L1.17 27.1C1.17 24.52 3.27 22.42 5.85 22.42L8.2 22.42C13.37 22.42 17.65 18.13 17.65 12.96C17.65 11.67 18.7 10.62 20 10.62C21.29 10.62 22.34 11.67 22.34 12.96C22.34 19.92 17.19 25.79 10.55 26.91L10.54 38.82Z" stroke="#6667AB" stroke-opacity="1.000000" stroke-width="1.640625" stroke-linejoin="round"/>
			<path id="path1619" d="M34.14 20.07C36.08 20.07 37.65 18.5 37.65 16.56C37.65 14.62 36.08 13.04 34.14 13.04C32.19 13.04 30.62 14.62 30.62 16.56C30.62 18.5 32.19 20.07 34.14 20.07Z" stroke="#6667AB" stroke-opacity="1.000000" stroke-width="1.640625" stroke-linejoin="round"/>
			<path id="path1623" d="M20 20.73C22.1 23.9 25.54 26.25 29.44 26.91L29.45 38.82L38.82 38.82L38.82 27.1C38.82 24.52 36.72 22.42 34.14 22.42L31.79 22.42C26.62 22.42 22.34 18.13 22.34 12.96" stroke="#6667AB" stroke-opacity="1.000000" stroke-width="1.640625" stroke-linejoin="round" stroke-linecap="round"/>
		</g>
	</g>
</svg>
