<svg width="40.000000" height="40.000000" viewBox="0 0 40 40" fill="none" xmlns="http://www.w3.org/2000/svg" xmlns:xlink="http://www.w3.org/1999/xlink">
	<desc>
			Created with Pixso.
	</desc>
	<defs>
		<clipPath id="clip274_4047">
			<rect id="image_1829415 1" rx="0.000000" width="39.958904" height="39.958904" transform="translate(0.020548 0.020548)" fill="white" fill-opacity="0"/>
		</clipPath>
	</defs>
	<rect id="image_1829415 1" rx="0.000000" width="39.958904" height="39.958904" transform="translate(0.020548 0.020548)" fill="#FFFFFF" fill-opacity="0"/>
	<g clip-path="url(#clip274_4047)">
		<path id="Vector" d="M29.5 38.38C29.18 38.38 28.86 38.34 28.54 38.26L2.77 31.36C0.78 30.81 -0.4 28.75 0.12 26.76L2.95 15.9C3.12 15.23 3.81 14.83 4.48 15.01C5.14 15.18 5.54 15.86 5.37 16.53L2.54 27.4C2.36 28.07 2.76 28.76 3.43 28.94L29.18 35.84C29.85 36.02 30.53 35.62 30.7 34.96L31.58 31.41C31.75 30.74 32.43 30.34 33.1 30.5C33.77 30.67 34.17 31.34 34.01 32.01L33.13 35.58C32.68 37.27 31.16 38.38 29.5 38.38Z" fill="#6667AB" fill-opacity="1.000000" fill-rule="nonzero"/>
		<path id="Vector" d="M36.24 28.38L10.41 28.38C8.34 28.38 6.66 26.7 6.66 24.63L6.66 5.46C6.66 3.39 8.34 1.71 10.41 1.71L36.24 1.71C38.31 1.71 39.99 3.39 39.99 5.46L39.99 24.63C39.99 26.7 38.31 28.38 36.24 28.38ZM10.41 4.21C9.72 4.21 9.16 4.77 9.16 5.46L9.16 24.63C9.16 25.32 9.72 25.88 10.41 25.88L36.24 25.88C36.93 25.88 37.49 25.32 37.49 24.63L37.49 5.46C37.49 4.77 36.93 4.21 36.24 4.21L10.41 4.21Z" fill="#6667AB" fill-opacity="1.000000" fill-rule="nonzero"/>
		<path id="Vector" d="M14.99 13.38C13.16 13.38 11.66 11.89 11.66 10.05C11.66 8.21 13.16 6.71 14.99 6.71C16.83 6.71 18.33 8.21 18.33 10.05C18.33 11.89 16.83 13.38 14.99 13.38ZM14.99 9.21C14.53 9.21 14.16 9.59 14.16 10.05C14.16 10.51 14.53 10.88 14.99 10.88C15.45 10.88 15.83 10.51 15.83 10.05C15.83 9.59 15.45 9.21 14.99 9.21Z" fill="#6667AB" fill-opacity="1.000000" fill-rule="nonzero"/>
		<path id="Vector" d="M7.94 26.68C7.62 26.68 7.3 26.56 7.06 26.31C6.57 25.83 6.57 25.03 7.06 24.55L14.59 17.01C15.73 15.87 17.59 15.87 18.73 17.01L20.74 19.03L26.93 11.6C27.49 10.93 28.3 10.55 29.16 10.55C30.09 10.49 30.84 10.92 31.39 11.57L39.69 21.25C40.14 21.77 40.08 22.56 39.56 23.01C39.03 23.46 38.24 23.4 37.79 22.88L29.49 13.2C29.38 13.06 29.25 13.07 29.17 13.05C29.1 13.05 28.96 13.07 28.85 13.2L21.79 21.68C21.56 21.95 21.23 22.12 20.88 22.13C20.53 22.15 20.19 22.01 19.94 21.77L16.96 18.78C16.75 18.57 16.57 18.57 16.36 18.78L8.83 26.31C8.58 26.56 8.26 26.68 7.94 26.68Z" fill="#6667AB" fill-opacity="1.000000" fill-rule="nonzero"/>
	</g>
</svg>
