<svg width="24" height="19" viewBox="0 0 24 19" fill="" xmlns="http://www.w3.org/2000/svg">
<path d="M23.8379 17.3994C23.8379 18.2278 23.1663 18.8994 22.3379 18.8994H13.7041C12.8757 18.8994 12.2041 18.2278 12.2041 17.3994C12.2041 16.571 12.8757 15.8994 13.7041 15.8994H22.3379C23.1663 15.8994 23.8379 16.571 23.8379 17.3994ZM23.8379 9.89941C23.8379 10.7278 23.1663 11.3994 22.3379 11.3994H2.07031C1.24188 11.3994 0.570312 10.7278 0.570312 9.89941C0.570312 9.07099 1.24189 8.39941 2.07031 8.39941H22.3379C23.1663 8.39941 23.8379 9.07099 23.8379 9.89941ZM23.8379 2.39941C23.8379 3.22784 23.1663 3.89941 22.3379 3.89941H2.07031C1.24188 3.89941 0.570312 3.22784 0.570312 2.39941C0.570312 1.57099 1.24189 0.899414 2.07031 0.899414H22.3379C23.1663 0.899414 23.8379 1.57099 23.8379 2.39941Z" fill=""/>
</svg>
