<svg width="28.000000" height="28.000000" viewBox="0 0 28 28" fill="none" xmlns="http://www.w3.org/2000/svg" xmlns:xlink="http://www.w3.org/1999/xlink">
	<desc>
			Created with Pixso.
	</desc>
	<defs>
		<clipPath id="clip239_3186">
			<rect id="map-pin" rx="0.000000" width="27.000000" height="27.000000" transform="translate(0.500000 0.500000)" fill="white" fill-opacity="0"/>
		</clipPath>
	</defs>
	<rect id="map-pin" rx="0.000000" width="27.000000" height="27.000000" transform="translate(0.500000 0.500000)" fill="#FFFFFF" fill-opacity="0"/>
	<g clip-path="url(#clip239_3186)">
		<path id="Vector (Stroke)" d="M13.99 2.33C11.52 2.33 9.14 3.31 7.39 5.06C5.64 6.81 4.66 9.19 4.66 11.66C4.66 15.28 7.01 18.78 9.59 21.51C10.86 22.84 12.13 23.93 13.08 24.69C13.44 24.98 13.75 25.21 13.99 25.4C14.24 25.21 14.55 24.98 14.91 24.69C15.86 23.93 17.13 22.84 18.4 21.51C20.98 18.78 23.33 15.28 23.33 11.66C23.33 9.19 22.34 6.81 20.59 5.06C18.84 3.31 16.47 2.33 13.99 2.33ZM13.99 26.83C13.35 27.8 13.35 27.8 13.35 27.8L13.34 27.8L13.33 27.79L13.31 27.77C13.29 27.76 13.25 27.74 13.21 27.71C13.13 27.65 13.01 27.57 12.86 27.46C12.56 27.24 12.13 26.92 11.63 26.52C10.61 25.71 9.26 24.54 7.9 23.11C5.23 20.29 2.33 16.21 2.33 11.66C2.33 8.57 3.56 5.6 5.74 3.41C7.93 1.22 10.9 0 13.99 0C17.09 0 20.06 1.22 22.24 3.41C24.43 5.6 25.66 8.57 25.66 11.66C25.66 16.21 22.76 20.29 20.09 23.11C18.73 24.54 17.38 25.71 16.36 26.52C15.85 26.92 15.43 27.24 15.13 27.46C14.98 27.57 14.86 27.65 14.78 27.71C14.73 27.74 14.7 27.76 14.68 27.77L14.65 27.79L14.64 27.8L14.64 27.8C14.64 27.8 14.64 27.8 13.99 26.83ZM13.99 26.83L14.64 27.8C14.25 28.06 13.74 28.06 13.35 27.8L13.99 26.83Z" fill="#6667AB" fill-opacity="1.000000" fill-rule="evenodd"/>
		<path id="Vector (Stroke)" d="M13.99 9.33C12.71 9.33 11.66 10.37 11.66 11.66C11.66 12.95 12.71 14 13.99 14C15.28 14 16.33 12.95 16.33 11.66C16.33 10.37 15.28 9.33 13.99 9.33ZM9.33 11.66C9.33 9.08 11.42 7 13.99 7C16.57 7 18.66 9.08 18.66 11.66C18.66 14.24 16.57 16.33 13.99 16.33C11.42 16.33 9.33 14.24 9.33 11.66Z" fill="#6667AB" fill-opacity="1.000000" fill-rule="evenodd"/>
	</g>
</svg>
