<svg width="60.000000" height="60.000000" viewBox="0 0 60 60" fill="none" xmlns="http://www.w3.org/2000/svg" xmlns:xlink="http://www.w3.org/1999/xlink">
	<desc>
			Created with Pixso.
	</desc>
	<defs>
		<clipPath id="clip239_3628">
			<rect id="megaphone_7610755 1" rx="0.000000" width="59.000000" height="59.000000" transform="translate(0.500000 0.500000)" fill="white" fill-opacity="0"/>
		</clipPath>
	</defs>
	<rect id="megaphone_7610755 1" rx="0.000000" width="59.000000" height="59.000000" transform="translate(0.500000 0.500000)" fill="#FFFFFF" fill-opacity="0"/>
	<g clip-path="url(#clip239_3628)">
		<path id="Vector" d="M29.22 2.97C28.44 2.19 27.39 1.76 26.29 1.76C25.19 1.76 24.13 2.19 23.36 2.97L22.97 3.36C22.58 3.74 22.28 4.2 22.07 4.7C21.86 5.2 21.75 5.74 21.75 6.29C21.75 6.83 21.86 7.37 22.07 7.87C22.28 8.38 22.58 8.83 22.97 9.22L23.91 10.16L22.81 15.01C21.57 20.45 18.82 25.43 14.87 29.38L13.84 30.41L13.84 30.41L13.84 30.41L7.21 37.03C6.28 37.96 5.76 39.22 5.76 40.54C5.76 41.85 6.28 43.11 7.21 44.04L10.18 47.01C10.64 47.47 11.19 47.84 11.79 48.09C12.39 48.34 13.04 48.46 13.69 48.46C14.34 48.46 14.98 48.34 15.58 48.09C16.18 47.84 16.73 47.47 17.19 47.01L17.6 46.6L29.84 58.85C30.58 59.58 31.57 59.99 32.61 59.99C33.65 59.99 34.64 59.58 35.37 58.85L35.73 58.5C36.46 57.76 36.87 56.77 36.87 55.73C36.87 54.69 36.46 53.7 35.73 52.96L28.49 45.72L30.87 43.34C31.24 42.97 31.53 42.53 31.73 42.05C31.93 41.57 32.03 41.06 32.03 40.54C32.03 40.02 31.93 39.5 31.73 39.02C31.53 38.54 31.24 38.11 30.87 37.74L29.02 35.89C32.11 33.77 35.56 32.25 39.22 31.42L44.07 30.31L45.01 31.26C45.79 32.03 46.84 32.47 47.94 32.47C49.04 32.47 50.09 32.03 50.87 31.26L51.26 30.87C52.03 30.09 52.47 29.04 52.47 27.94C52.47 26.84 52.03 25.79 51.26 25.01L29.22 2.97ZM22.78 37.29L16.93 31.44C17.52 30.85 18.08 30.24 18.62 29.62L24.61 35.6C23.98 36.14 23.37 36.7 22.78 37.29L22.78 37.29ZM15.13 44.95C14.94 45.14 14.71 45.29 14.47 45.39C14.22 45.49 13.95 45.54 13.69 45.54C13.42 45.54 13.15 45.49 12.91 45.39C12.66 45.29 12.44 45.14 12.25 44.95L9.28 41.98C8.9 41.6 8.68 41.08 8.68 40.54C8.68 40 8.9 39.48 9.28 39.1L14.87 33.5L20.72 39.36L15.13 44.95ZM33.66 56.43C33.26 56.98 32.46 57.37 31.91 56.79L19.66 44.54L21.42 42.78L33.66 55.03C33.85 55.21 33.95 55.47 33.95 55.73C33.95 55.99 33.85 56.25 33.66 56.43ZM28.81 39.8C28.91 39.9 28.98 40.01 29.03 40.14C29.09 40.27 29.11 40.4 29.11 40.54C29.11 40.67 29.09 40.81 29.03 40.94C28.98 41.06 28.91 41.18 28.81 41.27L26.42 43.66L23.48 40.72C23.48 40.72 26.05 38.21 26.68 37.67L28.81 39.8ZM38.57 28.57C34.38 29.53 30.42 31.3 26.92 33.79L20.44 27.3C22.93 23.8 24.7 19.85 25.65 15.66L26.35 12.6L41.63 27.88L38.57 28.57ZM49.19 28.81C48.69 29.48 47.74 29.88 47.07 29.19L25.03 7.15C23.83 5.98 25.99 3.83 27.15 5.03L49.19 27.07C49.42 27.3 49.55 27.61 49.55 27.94C49.55 28.26 49.42 28.57 49.19 28.81L49.19 28.81Z" fill="#6667AB" fill-opacity="1.000000" fill-rule="nonzero"/>
		<path id="Vector" d="M16.18 38.23C16.04 38.1 15.88 37.99 15.7 37.92C15.53 37.84 15.34 37.8 15.14 37.8C14.95 37.8 14.76 37.84 14.59 37.92C14.41 37.99 14.25 38.1 14.11 38.23L12.68 39.66C12.54 39.8 12.44 39.96 12.36 40.14C12.29 40.31 12.25 40.5 12.25 40.7C12.25 40.89 12.29 41.08 12.36 41.25C12.44 41.43 12.54 41.59 12.68 41.73C12.95 42 13.33 42.16 13.71 42.16C13.9 42.16 14.09 42.12 14.27 42.04C14.45 41.97 14.61 41.86 14.74 41.73L16.18 40.3C16.45 40.02 16.6 39.65 16.6 39.26C16.6 38.88 16.45 38.51 16.18 38.23Z" fill="#6667AB" fill-opacity="1.000000" fill-rule="nonzero"/>
		<path id="Vector" d="M46.17 9.51C46.36 9.51 46.55 9.48 46.73 9.4C46.91 9.33 47.07 9.22 47.2 9.09L49.74 6.55C49.88 6.41 49.99 6.25 50.06 6.07C50.13 5.89 50.17 5.7 50.17 5.51C50.17 5.32 50.13 5.13 50.06 4.95C49.99 4.78 49.88 4.62 49.74 4.48C49.61 4.35 49.45 4.24 49.27 4.16C49.09 4.09 48.9 4.05 48.71 4.05C48.52 4.05 48.33 4.09 48.15 4.16C47.97 4.24 47.81 4.35 47.68 4.48L45.14 7.02C44.93 7.23 44.79 7.49 44.74 7.77C44.68 8.05 44.71 8.35 44.82 8.61C44.93 8.88 45.12 9.11 45.36 9.27C45.6 9.43 45.88 9.51 46.17 9.51Z" fill="#6667AB" fill-opacity="1.000000" fill-rule="nonzero"/>
		<path id="Vector" d="M38.27 6.34C38.46 6.39 38.65 6.4 38.84 6.37C39.03 6.35 39.21 6.29 39.38 6.19C39.55 6.09 39.69 5.97 39.81 5.81C39.92 5.66 40.01 5.49 40.06 5.3L40.99 1.83C41.04 1.65 41.05 1.45 41.03 1.26C41 1.07 40.94 0.89 40.84 0.72C40.75 0.56 40.62 0.41 40.47 0.3C40.32 0.18 40.14 0.09 39.96 0.04C39.77 -0.01 39.58 -0.02 39.39 0.01C39.2 0.03 39.02 0.09 38.85 0.19C38.68 0.29 38.54 0.41 38.42 0.57C38.31 0.72 38.22 0.89 38.17 1.08L37.24 4.55C37.19 4.73 37.18 4.93 37.2 5.12C37.23 5.31 37.29 5.49 37.39 5.66C37.48 5.82 37.61 5.97 37.76 6.08C37.91 6.2 38.09 6.29 38.27 6.34Z" fill="#6667AB" fill-opacity="1.000000" fill-rule="nonzero"/>
		<path id="Vector" d="M54.18 14.27C54.08 13.89 53.83 13.57 53.5 13.38C53.16 13.19 52.77 13.13 52.39 13.23L48.92 14.16C48.74 14.21 48.56 14.3 48.41 14.41C48.26 14.53 48.13 14.68 48.03 14.84C47.94 15.01 47.88 15.19 47.85 15.38C47.83 15.57 47.84 15.77 47.89 15.95C47.94 16.14 48.02 16.31 48.14 16.46C48.26 16.61 48.4 16.74 48.57 16.84C48.73 16.93 48.92 16.99 49.11 17.02C49.3 17.04 49.49 17.03 49.68 16.98L53.15 16.05C53.52 15.95 53.84 15.71 54.03 15.37C54.23 15.04 54.28 14.64 54.18 14.27Z" fill="#6667AB" fill-opacity="1.000000" fill-rule="nonzero"/>
	</g>
</svg>
