<svg width="22.996094" height="23.333984" viewBox="0 0 22.9961 23.334" fill="none" xmlns="http://www.w3.org/2000/svg" xmlns:xlink="http://www.w3.org/1999/xlink">
	<desc>
			Created with Pixso.
	</desc>
	<defs/>
	<path id="Vector" d="M5.81055 19.5361L5.82227 19.5264C6.19336 19.2046 6.38086 19.0435 6.58984 18.9287C6.77539 18.8252 6.97656 18.7495 7.18164 18.7041C7.41406 18.6523 7.65625 18.6523 8.14062 18.6523L18.2676 18.6523C19.5703 18.6523 20.2246 18.6523 20.7227 18.3774C21.1602 18.1357 21.5176 17.75 21.7422 17.2754C21.9961 16.7358 21.9961 16.0298 21.9961 14.6226L21.9961 5.03125C21.9961 3.62158 21.9961 2.91504 21.7422 2.37695C21.5176 1.90234 21.1602 1.5166 20.7207 1.2749C20.2227 1 19.5703 1 18.2637 1L4.73242 1C3.42578 1 2.77344 1 2.27344 1.2749C1.83398 1.5166 1.47852 1.90234 1.25391 2.37695C1 2.9165 1 3.62256 1 5.03467L1 19.4985C1 20.8423 1 21.5146 1.25391 21.8589C1.36328 22.0073 1.50195 22.127 1.66016 22.2095C1.81836 22.2915 1.99219 22.3345 2.16797 22.334C2.57617 22.334 3.06055 21.9131 4.0332 21.0732L5.81055 19.5361Z" stroke="#6667AB" stroke-opacity="1.000000" stroke-width="2.000000" stroke-linejoin="round"/>
</svg>
