<svg width="40.000000" height="40.000000" viewBox="0 0 40 40" fill="none" xmlns="http://www.w3.org/2000/svg" xmlns:xlink="http://www.w3.org/1999/xlink">
	<desc>
			Created with Pixso.
	</desc>
	<defs>
		<clipPath id="clip274_4066">
			<rect id="mobile_1829423 1" rx="0.000000" width="39.958984" height="39.958984" transform="translate(0.020508 0.020508)" fill="white" fill-opacity="0"/>
		</clipPath>
	</defs>
	<rect id="mobile_1829423 1" rx="0.000000" width="39.958984" height="39.958984" transform="translate(0.020508 0.020508)" fill="#FFFFFF" fill-opacity="0"/>
	<g clip-path="url(#clip274_4066)">
		<path id="Vector" d="M29.99 23.33C27.7 23.33 25.83 21.46 25.83 19.16C25.83 16.87 27.7 15 29.99 15C32.29 15 34.16 16.87 34.16 19.16C34.16 21.46 32.29 23.33 29.99 23.33ZM29.99 17.5C29.08 17.5 28.33 18.24 28.33 19.16C28.33 20.08 29.08 20.83 29.99 20.83C30.91 20.83 31.66 20.08 31.66 19.16C31.66 18.24 30.91 17.5 29.99 17.5Z" fill="#6667AB" fill-opacity="1.000000" fill-rule="nonzero"/>
		<path id="Vector" d="M37.08 26.66L22.91 26.66C21.3 26.66 19.99 25.35 19.99 23.75L19.99 15.83C19.99 14.22 21.3 12.91 22.91 12.91L24.16 12.91C24.29 12.91 24.42 12.85 24.49 12.74L26.06 10.97C26.62 10.35 27.41 10 28.24 10L31.75 10C32.58 10 33.37 10.35 33.93 10.97L35.43 12.67C35.57 12.85 35.7 12.91 35.83 12.91L37.08 12.91C38.69 12.91 39.99 14.22 39.99 15.83L39.99 23.75C39.99 25.35 38.69 26.66 37.08 26.66ZM22.91 15.41C22.68 15.41 22.49 15.6 22.49 15.83L22.49 23.75C22.49 23.98 22.68 24.16 22.91 24.16L37.08 24.16C37.31 24.16 37.49 23.98 37.49 23.75L37.49 15.83C37.49 15.6 37.31 15.41 37.08 15.41L35.83 15.41C34.91 15.41 34.04 14.97 33.49 14.24L32.06 12.64C31.98 12.55 31.86 12.5 31.75 12.5L28.24 12.5C28.12 12.5 28.01 12.55 27.93 12.64L26.43 14.33C25.95 14.97 25.07 15.41 24.16 15.41L22.91 15.41Z" fill="#6667AB" fill-opacity="1.000000" fill-rule="nonzero"/>
		<path id="Vector" d="M17.08 6.66L9.58 6.66C7.97 6.66 6.66 5.35 6.66 3.75C6.66 3.06 6.1 2.5 5.41 2.5L4.58 2.5C3.89 2.5 3.33 1.94 3.33 1.25C3.33 0.55 3.89 0 4.58 0L5.41 0C7.48 0 9.16 1.68 9.16 3.75C9.16 3.98 9.35 4.16 9.58 4.16L17.08 4.16C17.31 4.16 17.49 3.98 17.49 3.75C17.49 1.68 19.18 0 21.24 0L22.08 0C22.77 0 23.33 0.55 23.33 1.25C23.33 1.94 22.77 2.5 22.08 2.5L21.24 2.5C20.55 2.5 19.99 3.06 19.99 3.75C19.99 5.35 18.69 6.66 17.08 6.66Z" fill="#6667AB" fill-opacity="1.000000" fill-rule="nonzero"/>
		<path id="Vector" d="M22.08 40L4.58 40C2.05 40 0 37.94 0 35.41L0 4.58C0 2.05 2.05 0 4.58 0L22.08 0C24.61 0 26.66 2.05 26.66 4.58L26.66 5.41C26.66 6.1 26.1 6.66 25.41 6.66C24.72 6.66 24.16 6.1 24.16 5.41L24.16 4.58C24.16 3.43 23.23 2.5 22.08 2.5L4.58 2.5C3.43 2.5 2.5 3.43 2.5 4.58L2.5 35.41C2.5 36.56 3.43 37.5 4.58 37.5L22.08 37.5C23.23 37.5 24.16 36.56 24.16 35.41L24.16 31.25C24.16 30.56 24.72 30 25.41 30C26.1 30 26.66 30.56 26.66 31.25L26.66 35.41C26.66 37.94 24.61 40 22.08 40Z" fill="#6667AB" fill-opacity="1.000000" fill-rule="nonzero"/>
	</g>
</svg>
