<svg viewBox="0 0 32 32" xmlns="http://www.w3.org/2000/svg" xmlns:xlink="http://www.w3.org/1999/xlink" width="32.000000" height="32.000000" fill="none">
	<rect id="money-bag_903571 1" width="32.000000" height="32.000000" x="0.000000" y="0.000000" fill="rgb(255,255,255)" fill-opacity="0" />
	<g id="Group">
		<g id="Group">
			<path id="Vector" d="M25.0949 16.8558C25.0874 16.8427 25.0796 16.8298 25.0714 16.817L21.1021 10.5873C22.0439 10.8092 23.1442 11.2936 23.8115 12.3421C23.9902 12.6229 24.2934 12.7764 24.6033 12.7764C24.7755 12.7764 24.9497 12.7289 25.1058 12.6297C25.5426 12.3517 25.6713 11.7722 25.3934 11.3354C24.2183 9.48875 22.2734 8.84769 20.8781 8.63212C20.9756 8.46212 21.0764 8.28281 21.1777 8.09831C22.2335 6.17419 22.3689 5.43813 22.3689 5.01188C22.3689 3.42081 21.0821 2.12512 19.4959 2.11375C18.8234 0.838 17.4813 0 15.9974 0C14.5135 0 13.1714 0.838 12.4989 2.11381C10.9127 2.12519 9.62588 3.41888 9.62588 5.0075C9.62588 5.43381 9.76131 6.16981 10.8173 8.09231C10.8454 8.14338 10.8733 8.19388 10.9013 8.24406C10.2069 8.01456 9.69119 7.68525 9.3475 7.41119C9.01056 7.14256 8.535 7.1365 8.19319 7.39888C7.71062 7.76938 7.7045 8.49412 8.18063 8.87281C8.80475 9.36925 9.77825 9.95825 11.1109 10.2379L6.92362 16.8174C6.91838 16.8257 6.91319 16.8341 6.90819 16.8424C5.81819 18.5922 5.24219 20.4986 5.24219 22.3573C5.24219 24.9545 6.37544 27.3896 8.43325 29.2142C10.4593 31.0107 13.1456 32 15.9974 32C18.8492 32 21.5355 31.0107 23.5615 29.2143C25.6193 27.3897 26.7526 24.9546 26.7526 22.3574C26.7526 20.5034 26.1796 18.6019 25.0949 16.8558ZM17.417 5.42569C17.5856 4.93619 18.119 4.67575 18.6086 4.8445C19.0982 5.013 19.3584 5.5465 19.1899 6.03606L18.33 8.53381L16.3478 8.53131L17.417 5.42569ZM13.4297 4.84456C13.9193 4.67581 14.4528 4.93619 14.6213 5.42575L15.6902 8.53056L13.7063 8.52806L12.8484 6.03613C12.6799 5.54656 12.9401 5.01306 13.4297 4.84456ZM15.2819 19.9525L16.7129 19.9525C18.2276 19.9525 19.4599 21.1854 19.4599 22.7009C19.4599 24.1415 18.3461 25.3259 16.9349 25.4395L16.9349 26.0206C16.9349 26.5384 16.5152 26.9581 15.9974 26.9581C15.4797 26.9581 15.0599 26.5384 15.0599 26.0206L15.0599 25.4492L14.5945 25.4492C13.4589 25.4492 12.535 24.525 12.535 23.3889C12.535 22.8711 12.9548 22.4514 13.4725 22.4514C13.9902 22.4514 14.41 22.8711 14.41 23.3889C14.41 23.4911 14.4927 23.5742 14.5945 23.5742L16.7129 23.5742C17.1938 23.5742 17.5849 23.1824 17.5849 22.7009C17.5849 22.2192 17.1938 21.8274 16.7129 21.8274L15.282 21.8274C13.7673 21.8274 12.535 20.5945 12.535 19.0791C12.535 17.6384 13.6488 16.454 15.0599 16.3404L15.0599 15.8811C15.0599 15.3633 15.4797 14.9436 15.9974 14.9436C16.5152 14.9436 16.9349 15.3633 16.9349 15.8811L16.9349 16.3306L17.4004 16.3306C18.536 16.3306 19.4599 17.2549 19.4599 18.391C19.4599 18.9088 19.0401 19.3285 18.5224 19.3285C18.0046 19.3285 17.5849 18.9088 17.5849 18.391C17.5849 18.2888 17.5021 18.2056 17.4004 18.2056L15.2819 18.2056C14.8011 18.2056 14.4099 18.5974 14.4099 19.079C14.41 19.5608 14.8011 19.9525 15.2819 19.9525Z" fill="rgb(102,103,171)" fill-rule="nonzero" />
		</g>
	</g>
</svg>
