<svg width="28.000000" height="28.000000" viewBox="0 0 28 28" fill="none" xmlns="http://www.w3.org/2000/svg" xmlns:xlink="http://www.w3.org/1999/xlink">
	<desc>
			Created with Pixso.
	</desc>
	<defs>
		<clipPath id="clip239_3179">
			<rect id="money-integral-line-svgrepo-com 1" rx="0.000000" width="27.000000" height="27.000000" transform="translate(0.500000 0.500000)" fill="white" fill-opacity="0"/>
		</clipPath>
	</defs>
	<rect id="money-integral-line-svgrepo-com 1" rx="0.000000" width="27.000000" height="27.000000" transform="translate(0.500000 0.500000)" fill="#FFFFFF" fill-opacity="0"/>
	<g clip-path="url(#clip239_3179)">
		<path id="Vector" d="M26.03 6.94C26.03 4.69 23.02 2.99 19.03 2.99C15.04 2.99 12.03 4.69 12.03 6.94C12.03 6.96 12.03 6.97 12.03 6.99L12.03 6.99L12.03 9.99L14.03 9.99L14.03 9.75C15.28 10.45 17.03 10.88 19.03 10.88C20.87 10.88 22.5 10.51 23.72 9.9C23.91 10.1 24.03 10.29 24.03 10.46C24.03 11.24 22.03 12.41 19.03 12.41L17.03 12.41L17.03 14.41L19.03 14.41C20.87 14.41 22.5 14.04 23.72 13.43C23.91 13.63 24.03 13.82 24.03 13.99C24.03 14.77 22.03 15.93 19.03 15.93L18.32 15.94C17.88 15.94 17.46 15.95 17.05 15.94L17 17.93C17.22 17.94 17.44 17.94 17.67 17.94C17.89 17.94 18.11 17.94 18.33 17.94L19.03 17.94C20.87 17.94 22.5 17.57 23.72 16.96C23.91 17.16 24.03 17.35 24.03 17.52C24.03 18.3 22.03 19.46 19.03 19.46L17.03 19.46L17.03 21.46L19.03 21.46C20.87 21.46 22.5 21.1 23.72 20.49C23.91 20.69 24.03 20.88 24.03 21.05C24.03 21.83 22.03 22.99 19.03 22.99L17.03 22.99L17.03 24.99L19.03 24.99C23.02 24.99 26.03 23.3 26.03 21.05C26.03 21.03 26.02 21.01 26.02 20.99L26.03 20.99L26.03 6.99L26.02 6.99C26.02 6.97 26.03 6.95 26.03 6.94ZM14.03 6.94C14.03 6.16 16.02 4.99 19.03 4.99C22.03 4.99 24.03 6.16 24.03 6.94C24.03 7.71 22.03 8.88 19.03 8.88C16.02 8.88 14.03 7.71 14.03 6.94Z" fill="#6667AB" fill-opacity="1.000000" fill-rule="nonzero"/>
		<path id="Vector" d="M9.03 9.99C5.04 9.99 2.03 11.69 2.03 13.94C2.03 13.96 2.03 13.97 2.03 13.99L2.03 13.99L2.03 20.99C2.03 23.24 5.04 24.94 9.03 24.94C13.02 24.94 16.03 23.24 16.03 20.99L16.03 13.99L16.02 13.99C16.02 13.97 16.03 13.96 16.03 13.94C16.03 11.69 13.02 9.99 9.03 9.99ZM4.03 17.46C4.03 17.29 4.14 17.1 4.33 16.9C5.56 17.51 7.18 17.88 9.03 17.88C10.87 17.88 12.5 17.51 13.72 16.9C13.91 17.1 14.03 17.29 14.03 17.46C14.03 18.24 12.03 19.41 9.03 19.41C6.02 19.41 4.03 18.24 4.03 17.46ZM9.03 11.99C12.03 11.99 14.03 13.16 14.03 13.94C14.03 14.71 12.03 15.88 9.03 15.88C6.02 15.88 4.03 14.71 4.03 13.94C4.03 13.16 6.02 11.99 9.03 11.99ZM9.03 22.94C6.02 22.94 4.03 21.77 4.03 20.99C4.03 20.82 4.14 20.63 4.33 20.43C5.56 21.04 7.18 21.41 9.03 21.41C10.87 21.41 12.5 21.04 13.72 20.43C13.91 20.63 14.03 20.82 14.03 20.99C14.03 21.77 12.03 22.94 9.03 22.94Z" fill="#6667AB" fill-opacity="1.000000" fill-rule="nonzero"/>
	</g>
</svg>
