<svg viewBox="0 0 32 32" xmlns="http://www.w3.org/2000/svg" xmlns:xlink="http://www.w3.org/1999/xlink" width="32.000000" height="32.000000" fill="none">
	<rect id="pickup-car_3988372 1" width="32.000000" height="32.000000" x="0.000000" y="0.000000" fill="rgb(255,255,255)" fill-opacity="0" />
	<g id="_x30_4_Pickup_Car">
		<g id="Group">
			<path id="Vector" d="M29.5999 14.7631L25.8566 13.9631L22.1466 9.57319C19.3362 6.23988 15.5738 7.402 13.6333 7.1665C12.9 7.1665 12.3 7.7665 12.3 8.49982L12.3 13.8998L2 13.8998C0.896688 13.8998 0 14.7998 0 15.8998L0 20.0065C0 20.1865 0.07 20.3531 0.196625 20.4799C0.548 20.7598 1.20475 21.8167 2.73331 21.9866C2.70331 21.7799 2.69 21.5666 2.69 21.3532C2.69 18.6898 4.85662 16.5232 7.51669 16.5232C10.1801 16.5232 12.3467 18.6898 12.3467 21.3532C12.3467 21.5732 12.3301 21.7932 12.3001 22.0065L20.9134 22.0065C20.8834 21.7931 20.8667 21.5731 20.8667 21.3532C20.8667 18.6898 23.0333 16.5232 25.6934 16.5232C28.3568 16.5232 30.5234 18.6898 30.5234 21.3532C30.5234 21.5532 30.5101 21.7499 30.4867 21.9432C31.3567 21.7298 32 20.9432 32 20.0066L32 17.7266C32 16.2998 30.9899 15.0498 29.5999 14.7631ZM18.2888 17.1194L17.3657 17.1194C16.9976 17.1194 16.699 16.8209 16.699 16.4528C16.699 16.0846 16.9975 15.7861 17.3657 15.7861L18.2888 15.7861C18.6569 15.7861 18.9555 16.0846 18.9555 16.4528C18.9555 16.8209 18.6571 17.1194 18.2888 17.1194ZM16.4067 13.8998L16.4067 8.49975L16.97 8.49975C18.5767 8.49975 20.0933 9.20644 21.13 10.4331L24.06 13.8998L16.4067 13.8998Z" fill="rgb(102,103,171)" fill-rule="nonzero" />
			<path id="Vector" d="M7.51681 17.8555C5.59019 17.8555 4.02344 19.4221 4.02344 21.3522C4.02344 23.2788 5.59013 24.8455 7.51681 24.8455C9.4435 24.8455 11.0135 23.2788 11.0135 21.3522C11.0135 19.4222 9.44344 17.8555 7.51681 17.8555Z" fill="rgb(102,103,171)" fill-rule="nonzero" />
			<path id="Vector" d="M25.6926 17.8555C23.7659 17.8555 22.1992 19.4221 22.1992 21.3522C22.1992 23.2788 23.7658 24.8455 25.6926 24.8455C27.6192 24.8455 29.1893 23.2788 29.1893 21.3522C29.1893 19.4222 27.6193 17.8555 25.6926 17.8555Z" fill="rgb(102,103,171)" fill-rule="nonzero" />
		</g>
	</g>
</svg>
