<svg viewBox="0 0 32 32" xmlns="http://www.w3.org/2000/svg" xmlns:xlink="http://www.w3.org/1999/xlink" width="32.000000" height="32.000000" fill="none">
	<rect id="projector_5567519 1" width="32.000000" height="32.000000" x="0.000000" y="0.000000" fill="rgb(255,255,255)" fill-opacity="0" />
	<g id="_x39_8">
		<path id="Vector" d="M28.0351 11.534C27.7372 7.88751 24.6627 5.01562 20.9327 5.01562C17.2028 5.01562 14.1402 7.87558 13.8304 11.5222L4.2494 11.5222C2.84325 11.5222 1.69922 12.6661 1.69922 14.0723L1.69922 21.4606C1.69922 22.8668 2.84325 24.0108 4.2494 24.0108L4.51372 24.0108L4.51372 25.0426C4.51372 26.1151 5.38361 26.985 6.44421 26.985L10.9725 26.985C12.045 26.985 12.903 26.1151 12.903 25.0426L12.903 24.0108L19.0997 24.0108L19.0997 25.0426C19.0997 26.1151 19.9696 26.985 21.0302 26.985L25.5585 26.985C26.6191 26.985 27.489 26.1151 27.489 25.0426L27.489 24.0108L27.761 24.0108C29.1553 24.0108 30.2992 22.8668 30.2992 21.4606L30.2992 14.0723C30.2992 12.7615 29.2983 11.677 28.0351 11.534ZM20.9327 7.39896C23.5295 7.39896 25.6755 9.49976 25.6755 12.118C25.6755 14.7396 23.5425 16.8608 20.9327 16.8608C18.3111 16.8608 16.1899 14.7396 16.1899 12.118C16.1899 9.54146 18.2896 7.39896 20.9327 7.39896ZM8.90879 16.122C8.90879 15.4666 9.44505 14.9303 10.1005 14.9303C10.7559 14.9303 11.2921 15.4666 11.2921 16.122L11.2921 19.411C11.2921 20.0783 10.7559 20.6026 10.1005 20.6026C9.44505 20.6026 8.90879 20.0783 8.90879 19.411L8.90879 16.122ZM4.14212 19.411L4.14212 16.122C4.14212 15.4666 4.67839 14.9303 5.33379 14.9303C5.98926 14.9303 6.52545 15.4666 6.52545 16.122L6.52545 19.411C6.52545 20.0783 5.98926 20.6026 5.33379 20.6026C4.67839 20.6026 4.14212 20.0783 4.14212 19.411Z" fill="rgb(102,103,171)" fill-rule="nonzero" />
		<path id="Vector" d="M20.9336 14.4766C22.2325 14.4766 23.293 13.416 23.293 12.1172C23.293 10.8529 22.2851 9.81264 20.9931 9.76953C21.1123 10.0079 21.1838 10.2819 21.1838 10.5679C21.1838 11.537 20.4001 12.4151 19.3486 12.4151C19.0746 12.4151 18.8124 12.3554 18.5859 12.2363C18.6456 13.4756 19.6704 14.4766 20.9336 14.4766Z" fill="rgb(102,103,171)" fill-rule="nonzero" />
	</g>
</svg>
