<svg viewBox="0 0 32 32" xmlns="http://www.w3.org/2000/svg" xmlns:xlink="http://www.w3.org/1999/xlink" width="32.000000" height="32.000000" fill="none">
	<rect id="robotic-leg_9049567 1" width="32.000000" height="32.000000" x="0.000000" y="0.000000" fill="rgb(255,255,255)" fill-opacity="0" />
	<g id="Group">
		<path id="Vector" d="M28.0998 25.1992L24.2617 25.1992C23.744 25.1992 23.3242 25.619 23.3242 26.1367L23.3242 30.0622C23.3242 30.58 23.744 30.9997 24.2617 30.9997L28.0998 30.9997C29.699 30.9997 31 29.6987 31 28.0995C31 26.5003 29.699 25.1992 28.0998 25.1992Z" fill="rgb(102,103,171)" fill-rule="nonzero" />
		<path id="Vector" d="M13.4591 21.4963C12.5527 22.7836 11.0552 23.6261 9.36469 23.6261C7.36122 23.6261 5.62895 22.4427 4.83015 20.7383C4.65771 20.3703 4.30655 20.1016 3.9002 20.1016C2.30099 20.1016 0.999969 21.4026 0.999969 23.0018L0.999969 28.0998C0.999969 29.699 2.30099 31.0001 3.9002 31.0001L20.6289 31.0001C21.1467 31.0001 21.5664 30.5803 21.5664 30.0626L21.5664 25.1896C21.5664 24.8414 21.3734 24.5219 21.0652 24.3598L14.8445 21.0889C14.3627 20.8356 13.7725 21.0513 13.4591 21.4963Z" fill="rgb(102,103,171)" fill-rule="nonzero" />
		<path id="Vector" d="M12.0007 12.6819L12.0007 12.4061C12.0007 11.8883 12.4204 11.4686 12.9382 11.4686L13.4308 11.4686C13.9486 11.4686 14.3683 11.0489 14.3683 10.5311L14.3683 1.9375C14.3683 1.41973 13.9486 1 13.4308 1L5.29688 1C4.77911 1 4.35938 1.41973 4.35938 1.9375L4.35938 10.5311C4.35938 11.0489 4.77911 11.4686 5.29688 11.4686L5.78948 11.4686C6.30724 11.4686 6.72698 11.8883 6.72698 12.4061L6.72698 12.6818C6.72698 13.4174 7.5639 13.8937 8.2821 13.7348C8.63055 13.6577 8.99253 13.6171 9.36382 13.6171C9.73513 13.6171 10.0971 13.6577 10.4456 13.7348C11.1638 13.8937 12.0007 13.4174 12.0007 12.6819Z" fill="rgb(102,103,171)" fill-rule="nonzero" />
		<path id="Vector" d="M9.36382 21.8684C11.1541 21.8684 12.6105 20.412 12.6105 18.6217C12.6105 16.8314 11.1541 15.375 9.36382 15.375C7.5736 15.375 6.11719 16.8314 6.11719 18.6217C6.11719 20.412 7.5736 21.8684 9.36382 21.8684ZM8.48491 17.7428L10.2427 17.7428L10.2427 19.5007L8.48491 19.5007L8.48491 17.7428Z" fill="rgb(102,103,171)" fill-rule="nonzero" />
	</g>
</svg>
