<svg width="60.000000" height="60.000000" viewBox="0 0 60 60" fill="none" xmlns="http://www.w3.org/2000/svg" xmlns:xlink="http://www.w3.org/1999/xlink">
	<desc>
			Created with Pixso.
	</desc>
	<defs>
		<clipPath id="clip239_3653">
			<rect id="search_7610913 1" rx="0.000000" width="59.000000" height="59.000000" transform="translate(0.500000 0.500000)" fill="white" fill-opacity="0"/>
		</clipPath>
	</defs>
	<rect id="search_7610913 1" rx="0.000000" width="59.000000" height="59.000000" transform="translate(0.500000 0.500000)" fill="#FFFFFF" fill-opacity="0"/>
	<g clip-path="url(#clip239_3653)">
		<path id="Vector" d="M58.34 50.24L49.74 41.64C48.85 40.75 47.69 40.18 46.44 40.03C45.19 39.87 43.93 40.13 42.84 40.77L36.81 34.74C40.29 30.73 42.13 25.55 41.94 20.24C41.76 14.93 39.57 9.89 35.81 6.14C27.63 -2.04 14.32 -2.04 6.14 6.14C2.3 9.98 0.1 15.17 0.01 20.6C-0.09 26.04 1.93 31.3 5.64 35.27C9.35 39.25 14.45 41.63 19.88 41.91C25.31 42.2 30.64 40.37 34.74 36.8L40.77 42.84C40.14 43.92 39.88 45.19 40.03 46.43C40.19 47.68 40.76 48.84 41.65 49.73L50.25 58.33C51.31 59.39 52.76 59.99 54.26 59.99C55.76 59.99 57.21 59.39 58.27 58.33L58.34 58.26C59.4 57.2 60 55.76 60 54.25C60 52.75 59.4 51.31 58.34 50.24ZM8.21 33.74C1.17 26.7 1.17 15.24 8.21 8.2C11.6 4.82 16.19 2.92 20.98 2.92C25.76 2.92 30.36 4.82 33.74 8.2C40.78 15.24 40.78 26.7 33.74 33.74C26.71 40.78 15.25 40.78 8.21 33.74ZM56.27 56.2L56.2 56.26C55.69 56.78 54.99 57.07 54.26 57.07C53.53 57.07 52.83 56.78 52.32 56.26L43.72 47.66C43.2 47.15 42.91 46.45 42.91 45.72C42.91 44.99 43.2 44.29 43.72 43.78L43.78 43.71C44.04 43.45 44.34 43.25 44.68 43.11C45.01 42.98 45.37 42.9 45.73 42.9C46.09 42.9 46.45 42.98 46.78 43.11C47.11 43.25 47.42 43.45 47.67 43.71L56.27 52.31C56.53 52.56 56.73 52.87 56.87 53.2C57 53.53 57.08 53.89 57.08 54.25C57.08 54.61 57 54.97 56.87 55.3C56.73 55.64 56.53 55.94 56.27 56.2Z" fill="#6667AB" fill-opacity="1.000000" fill-rule="nonzero"/>
		<path id="Vector" d="M20.98 22.89C22.1 22.89 23.19 22.56 24.12 21.94C25.06 21.31 25.78 20.43 26.21 19.39C26.64 18.36 26.75 17.22 26.54 16.12C26.32 15.02 25.78 14.01 24.98 13.22C24.19 12.42 23.18 11.88 22.08 11.66C20.98 11.45 19.84 11.56 18.81 11.99C17.77 12.42 16.88 13.14 16.26 14.07C15.64 15.01 15.31 16.1 15.31 17.22C15.31 18.73 15.91 20.17 16.97 21.23C18.03 22.29 19.47 22.89 20.98 22.89ZM20.98 14.48C21.52 14.48 22.05 14.64 22.5 14.94C22.95 15.24 23.3 15.67 23.51 16.17C23.72 16.67 23.77 17.23 23.67 17.76C23.56 18.29 23.3 18.78 22.92 19.16C22.53 19.55 22.04 19.81 21.51 19.92C20.98 20.02 20.43 19.97 19.93 19.76C19.42 19.55 19 19.2 18.69 18.75C18.39 18.3 18.23 17.77 18.23 17.22C18.23 16.5 18.52 15.8 19.04 15.28C19.55 14.77 20.25 14.48 20.98 14.48L20.98 14.48Z" fill="#6667AB" fill-opacity="1.000000" fill-rule="nonzero"/>
		<path id="Vector" d="M20.98 6.36C20.59 6.36 20.22 6.52 19.95 6.79C19.68 7.07 19.53 7.43 19.53 7.82C19.53 8.21 19.68 8.58 19.95 8.85C20.22 9.12 20.59 9.28 20.98 9.28C23.21 9.28 25.4 9.92 27.29 11.13C29.17 12.34 30.67 14.06 31.6 16.1C32.53 18.13 32.86 20.39 32.55 22.61C32.23 24.82 31.29 26.9 29.83 28.6C29.29 27.37 28.41 26.33 27.3 25.6C26.18 24.87 24.87 24.48 23.54 24.48L18.41 24.48C17.08 24.48 15.77 24.87 14.65 25.6C13.54 26.33 12.66 27.37 12.12 28.59C10.29 26.48 9.29 23.77 9.29 20.97C9.28 20.58 9.13 20.22 8.85 19.94C8.58 19.67 8.21 19.52 7.83 19.52C7.44 19.52 7.07 19.67 6.8 19.94C6.52 20.22 6.37 20.58 6.36 20.97C6.36 23.86 7.22 26.69 8.83 29.09C10.43 31.49 12.71 33.37 15.38 34.47C18.05 35.58 20.99 35.87 23.83 35.3C26.66 34.74 29.26 33.35 31.31 31.3C33.35 29.26 34.74 26.66 35.31 23.82C35.87 20.99 35.58 18.05 34.48 15.38C33.37 12.71 31.5 10.43 29.09 8.82C26.69 7.22 23.87 6.36 20.98 6.36ZM14.53 30.71C14.67 29.79 15.15 28.95 15.86 28.34C16.57 27.74 17.48 27.4 18.41 27.4L23.54 27.4C24.48 27.4 25.38 27.74 26.09 28.34C26.8 28.95 27.28 29.79 27.43 30.71C25.51 31.98 23.27 32.66 20.98 32.66C18.68 32.66 16.44 31.98 14.53 30.71Z" fill="#6667AB" fill-opacity="1.000000" fill-rule="nonzero"/>
	</g>
</svg>
