<svg width="40.000000" height="40.000000" viewBox="0 0 40 40" fill="none" xmlns="http://www.w3.org/2000/svg" xmlns:xlink="http://www.w3.org/1999/xlink">
	<desc>
			Created with Pixso.
	</desc>
	<defs>
		<clipPath id="clip274_4027">
			<rect id="shield_5799912 1" rx="0.000000" width="39.945312" height="39.945312" transform="translate(0.027344 0.027344)" fill="white" fill-opacity="0"/>
		</clipPath>
	</defs>
	<rect id="shield_5799912 1" rx="0.000000" width="39.945312" height="39.945312" transform="translate(0.027344 0.027344)" fill="#FFFFFF" fill-opacity="0"/>
	<g clip-path="url(#clip274_4027)">
		<path id="Vector" d="M30.95 8.24L20.33 5.12C20.11 5.06 19.88 5.06 19.66 5.12L9.04 8.24C8.54 8.39 8.2 8.85 8.2 9.37L8.2 24.37C8.2 27.69 10.83 30.25 13.62 32.03C16.12 33.62 18.83 34.62 19.66 34.87C19.88 34.93 20.11 34.93 20.33 34.87C21.16 34.62 23.87 33.62 26.37 32.03C29.16 30.25 31.79 27.69 31.79 24.37L31.79 9.37C31.79 8.85 31.45 8.39 30.95 8.24ZM29.45 24.37C29.45 28.55 22.46 31.68 20 32.51C17.53 31.68 10.54 28.55 10.54 24.37L10.54 10.25L20 7.47L29.45 10.25L29.45 24.37Z" fill="#6667AB" fill-opacity="1.000000" fill-rule="nonzero"/>
		<path id="Vector" d="M16.32 15.62L16.32 18.2L15.62 18.2C14.97 18.2 14.45 18.72 14.45 19.37L14.45 24.37C14.45 25.02 14.97 25.54 15.62 25.54L24.37 25.54C25.02 25.54 25.54 25.02 25.54 24.37L25.54 19.37C25.54 18.72 25.02 18.2 24.37 18.2L23.67 18.2L23.67 15.62C23.67 13.59 22.02 11.95 20 11.95C17.97 11.95 16.32 13.59 16.32 15.62ZM23.2 23.2L16.79 23.2L16.79 20.54L23.2 20.54L23.2 23.2ZM21.32 15.62L21.32 18.2L18.67 18.2L18.67 15.62C18.67 14.89 19.26 14.29 20 14.29C20.73 14.29 21.32 14.89 21.32 15.62Z" fill="#6667AB" fill-opacity="1.000000" fill-rule="nonzero"/>
		<path id="Vector" d="M32.36 3.37L21.74 0.24C20.61 -0.09 19.38 -0.09 18.25 0.24L7.63 3.37C5.03 4.13 3.2 6.52 3.2 9.29L3.2 24.62C3.2 27.82 4.55 32.46 11.01 36.45C14.39 38.54 17.83 39.62 18.21 39.73C19.37 40.08 20.62 40.08 21.78 39.73C22.16 39.62 25.6 38.54 28.98 36.45C35.44 32.46 36.79 27.82 36.79 24.62L36.79 9.29C36.79 6.58 35.02 4.15 32.36 3.37ZM34.45 24.62C34.45 27.22 33.29 31.04 27.75 34.46C24.62 36.39 21.45 37.38 21.1 37.49C20.38 37.7 19.61 37.7 18.89 37.49C18.54 37.38 15.37 36.39 12.24 34.46C6.7 31.04 5.54 27.22 5.54 24.62L5.54 9.29C5.54 7.6 6.67 6.09 8.29 5.62L18.91 2.49C19.62 2.29 20.37 2.29 21.08 2.49L31.7 5.62C33.32 6.09 34.45 7.6 34.45 9.29L34.45 24.62L34.45 24.62Z" fill="#6667AB" fill-opacity="1.000000" fill-rule="nonzero"/>
	</g>
</svg>
