<svg width="28.000000" height="28.000000" viewBox="0 0 28 28" fill="none" xmlns="http://www.w3.org/2000/svg" xmlns:xlink="http://www.w3.org/1999/xlink">
	<desc>
			Created with Pixso.
	</desc>
	<defs>
		<clipPath id="clip239_3196">
			<rect id="shield" rx="0.000000" width="27.000000" height="27.000000" transform="translate(0.500000 0.500000)" fill="white" fill-opacity="0"/>
		</clipPath>
	</defs>
	<rect id="shield" rx="0.000000" width="27.000000" height="27.000000" transform="translate(0.500000 0.500000)" fill="#FFFFFF" fill-opacity="0"/>
	<g clip-path="url(#clip239_3196)">
		<path id="Vector (Stroke)" d="M13.59 1.24C13.85 1.14 14.14 1.14 14.4 1.24L23.74 4.74C24.19 4.91 24.5 5.34 24.5 5.83L24.5 14C24.5 18.02 21.83 21.23 19.43 23.33C18.2 24.4 16.98 25.24 16.07 25.81C15.61 26.1 15.23 26.32 14.96 26.47C14.83 26.54 14.72 26.6 14.64 26.64C14.6 26.66 14.57 26.68 14.55 26.69L14.53 26.7L14.52 26.7L14.52 26.7C14.52 26.7 14.52 26.71 14 25.66C13.47 26.71 13.47 26.71 13.47 26.7L13.47 26.7L13.46 26.7L13.44 26.69C13.42 26.68 13.39 26.66 13.35 26.64C13.27 26.6 13.16 26.54 13.03 26.47C12.76 26.32 12.38 26.1 11.92 25.81C11.01 25.24 9.79 24.4 8.56 23.33C6.16 21.23 3.5 18.02 3.5 14L3.5 5.83C3.5 5.34 3.8 4.91 4.25 4.74L13.59 1.24ZM14 25.66L13.47 26.7C13.8 26.87 14.19 26.87 14.52 26.71L14 25.66ZM14 24.33C14.22 24.21 14.5 24.04 14.84 23.83C15.67 23.31 16.79 22.54 17.89 21.58C20.16 19.59 22.16 16.97 22.16 14L22.16 6.64L14 3.57L5.83 6.64L5.83 14C5.83 16.97 7.83 19.59 10.1 21.58C11.2 22.54 12.32 23.31 13.16 23.83C13.49 24.04 13.77 24.21 14 24.33Z" fill="#6667AB" fill-opacity="1.000000" fill-rule="evenodd"/>
	</g>
</svg>
