<svg width="60.000000" height="60.000000" viewBox="0 0 60 60" fill="none" xmlns="http://www.w3.org/2000/svg" xmlns:xlink="http://www.w3.org/1999/xlink">
	<desc>
			Created with Pixso.
	</desc>
	<defs>
		<clipPath id="clip239_3661">
			<rect id="shield_7610526 1" rx="0.000000" width="59.000000" height="59.000000" transform="translate(0.500000 0.500000)" fill="white" fill-opacity="0"/>
		</clipPath>
	</defs>
	<rect id="shield_7610526 1" rx="0.000000" width="59.000000" height="59.000000" transform="translate(0.500000 0.500000)" fill="#FFFFFF" fill-opacity="0"/>
	<g clip-path="url(#clip239_3661)">
		<path id="Vector" d="M51.64 6.23C44.33 5.76 37.21 3.69 30.79 0.16C30.55 0.02 30.28 -0.05 30 -0.05C29.72 -0.05 29.45 0.02 29.2 0.16C22.79 3.69 15.67 5.76 8.36 6.23C7.94 6.25 7.55 6.44 7.26 6.74C6.98 7.05 6.82 7.45 6.82 7.87L6.82 29.39C6.81 33.01 7.6 36.6 9.13 39.89C10.65 43.18 12.88 46.1 15.65 48.44L28.75 59.49C29.1 59.79 29.54 59.95 30 59.95C30.45 59.95 30.89 59.79 31.24 59.49L44.35 48.44C47.12 46.09 49.34 43.18 50.87 39.89C52.39 36.6 53.18 33.01 53.18 29.39L53.18 7.87C53.18 7.45 53.02 7.05 52.73 6.74C52.45 6.44 52.06 6.25 51.64 6.23ZM50.25 29.39C50.25 32.59 49.55 35.75 48.21 38.65C46.86 41.55 44.9 44.13 42.45 46.19L30 56.71L17.54 46.2C15.1 44.13 13.13 41.56 11.79 38.65C10.44 35.75 9.75 32.59 9.75 29.39L9.75 9.06C16.84 8.45 23.72 6.41 30 3.06C36.27 6.41 43.16 8.45 50.25 9.06L50.25 29.39Z" fill="#6667AB" fill-opacity="1.000000" fill-rule="nonzero"/>
		<path id="Vector" d="M24.75 24.86C24.48 24.59 24.11 24.44 23.72 24.44C23.34 24.44 22.97 24.6 22.69 24.87C22.42 25.14 22.27 25.51 22.26 25.9C22.26 26.28 22.41 26.65 22.68 26.93L29.31 33.56L44.6 18.26C44.87 17.99 45.02 17.62 45.02 17.23C45.01 16.84 44.86 16.48 44.59 16.2C44.31 15.93 43.95 15.78 43.56 15.77C43.17 15.77 42.8 15.92 42.53 16.19L29.31 29.41L24.75 24.86Z" fill="#6667AB" fill-opacity="1.000000" fill-rule="nonzero"/>
		<path id="Vector" d="M16.38 27.07C16.38 30.68 17.82 34.14 20.37 36.69C22.92 39.25 26.38 40.68 29.99 40.68C33.6 40.68 37.07 39.25 39.62 36.69C42.17 34.14 43.61 30.68 43.61 27.07C43.6 26.68 43.45 26.31 43.17 26.04C42.9 25.77 42.53 25.61 42.14 25.61C41.75 25.61 41.38 25.77 41.11 26.04C40.83 26.31 40.68 26.68 40.67 27.07C40.67 29.18 40.05 31.24 38.87 33C37.7 34.76 36.03 36.13 34.08 36.93C32.13 37.74 29.98 37.95 27.91 37.54C25.84 37.13 23.94 36.11 22.44 34.62C20.95 33.13 19.93 31.22 19.52 29.15C19.11 27.08 19.32 24.93 20.13 22.98C20.94 21.03 22.31 19.36 24.06 18.19C25.82 17.02 27.88 16.39 29.99 16.39C31.66 16.38 33.3 16.77 34.78 17.52C35.13 17.69 35.53 17.72 35.9 17.6C36.27 17.48 36.57 17.21 36.75 16.86C36.92 16.52 36.95 16.12 36.83 15.75C36.71 15.38 36.44 15.07 36.1 14.9C34.21 13.94 32.11 13.45 29.99 13.46C26.39 13.46 22.93 14.89 20.37 17.45C17.82 20 16.39 23.46 16.38 27.07Z" fill="#6667AB" fill-opacity="1.000000" fill-rule="nonzero"/>
	</g>
</svg>
