<svg width="28.000000" height="28.000000" viewBox="0 0 28 28" fill="none" xmlns="http://www.w3.org/2000/svg" xmlns:xlink="http://www.w3.org/1999/xlink">
	<desc>
			Created with Pixso.
	</desc>
	<defs>
		<clipPath id="clip239_3213">
			<rect id="smile" rx="0.000000" width="27.000000" height="27.000000" transform="translate(0.500000 0.500000)" fill="white" fill-opacity="0"/>
		</clipPath>
	</defs>
	<rect id="smile" rx="0.000000" width="27.000000" height="27.000000" transform="translate(0.500000 0.500000)" fill="#FFFFFF" fill-opacity="0"/>
	<g clip-path="url(#clip239_3213)">
		<path id="Vector (Stroke)" d="M14 3.5C8.2 3.5 3.5 8.2 3.5 14C3.5 19.79 8.2 24.5 14 24.5C19.8 24.5 24.5 19.79 24.5 14C24.5 8.2 19.8 3.5 14 3.5ZM1.16 14C1.16 6.91 6.91 1.16 14 1.16C21.08 1.16 26.83 6.91 26.83 14C26.83 21.08 21.08 26.83 14 26.83C6.91 26.83 1.16 21.08 1.16 14Z" fill="#6667AB" fill-opacity="1.000000" fill-rule="evenodd"/>
		<path id="Vector (Stroke)" d="M10.26 15.62C9.87 15.11 9.14 15.01 8.63 15.39C8.11 15.78 8.01 16.51 8.4 17.03L9.33 16.33C8.4 17.03 8.4 17.03 8.4 17.03L8.4 17.03L8.4 17.03L8.4 17.04L8.41 17.05L8.44 17.08C8.46 17.1 8.48 17.14 8.52 17.18C8.59 17.26 8.68 17.37 8.81 17.5C9.05 17.76 9.42 18.1 9.88 18.44C10.81 19.12 12.22 19.83 14 19.83C15.78 19.83 17.18 19.12 18.11 18.44C18.58 18.1 18.94 17.76 19.19 17.5C19.31 17.37 19.41 17.26 19.48 17.18C19.51 17.14 19.54 17.1 19.56 17.08L19.58 17.05L19.59 17.04L19.59 17.03L19.6 17.03L19.6 17.03C19.6 17.03 19.6 17.03 18.66 16.33L19.6 17.03C19.98 16.51 19.88 15.78 19.36 15.39C18.85 15.01 18.12 15.11 17.73 15.62L17.73 15.63C17.72 15.64 17.71 15.66 17.69 15.68C17.65 15.72 17.59 15.8 17.5 15.89C17.33 16.06 17.07 16.31 16.74 16.55C16.06 17.04 15.13 17.5 14 17.5C12.86 17.5 11.93 17.04 11.26 16.55C10.92 16.31 10.66 16.06 10.49 15.89C10.41 15.8 10.34 15.72 10.3 15.68C10.28 15.66 10.27 15.64 10.26 15.63L10.26 15.62Z" fill="#6667AB" fill-opacity="1.000000" fill-rule="evenodd"/>
		<path id="Vector (Stroke)" d="M9.33 10.49C9.33 9.85 9.85 9.33 10.49 9.33L10.51 9.33C11.15 9.33 11.67 9.85 11.67 10.49C11.67 11.14 11.15 11.66 10.51 11.66L10.49 11.66C9.85 11.66 9.33 11.14 9.33 10.49Z" fill="#6667AB" fill-opacity="1.000000" fill-rule="evenodd"/>
		<path id="Vector (Stroke)" d="M16.33 10.49C16.33 9.85 16.85 9.33 17.49 9.33L17.51 9.33C18.15 9.33 18.67 9.85 18.67 10.49C18.67 11.14 18.15 11.66 17.51 11.66L17.49 11.66C16.85 11.66 16.33 11.14 16.33 10.49Z" fill="#6667AB" fill-opacity="1.000000" fill-rule="evenodd"/>
	</g>
</svg>
