<svg width="19" height="19" viewBox="0 0 19 19" fill="" xmlns="http://www.w3.org/2000/svg">
<path d="M7.11775 9.25656H1.65346C1.26984 9.25656 0.901938 9.10417 0.63068 8.83291C0.359422 8.56165 0.207031 8.19375 0.207031 7.81013V2.34584C0.207031 1.96223 0.359422 1.59432 0.63068 1.32306C0.901938 1.05181 1.26984 0.899414 1.65346 0.899414H7.11775C7.50136 0.899414 7.86927 1.05181 8.14052 1.32306C8.41178 1.59432 8.56417 1.96223 8.56417 2.34584V7.81013C8.56417 8.19375 8.41178 8.56165 8.14052 8.83291C7.86927 9.10417 7.50136 9.25656 7.11775 9.25656ZM16.7606 9.25656H11.2963C10.9127 9.25656 10.5448 9.10417 10.2735 8.83291C10.0023 8.56165 9.84989 8.19375 9.84989 7.81013V2.34584C9.84989 1.96223 10.0023 1.59432 10.2735 1.32306C10.5448 1.05181 10.9127 0.899414 11.2963 0.899414H16.7606C17.1442 0.899414 17.5121 1.05181 17.7834 1.32306C18.0546 1.59432 18.207 1.96223 18.207 2.34584V7.81013C18.207 8.19375 18.0546 8.56165 17.7834 8.83291C17.5121 9.10417 17.1442 9.25656 16.7606 9.25656ZM7.11775 18.8994H1.65346C1.26984 18.8994 0.901938 18.747 0.63068 18.4758C0.359422 18.2045 0.207031 17.8366 0.207031 17.453V11.9887C0.207031 11.6051 0.359422 11.2372 0.63068 10.9659C0.901938 10.6947 1.26984 10.5423 1.65346 10.5423H7.11775C7.50136 10.5423 7.86927 10.6947 8.14052 10.9659C8.41178 11.2372 8.56417 11.6051 8.56417 11.9887V17.453C8.56417 17.8366 8.41178 18.2045 8.14052 18.4758C7.86927 18.747 7.50136 18.8994 7.11775 18.8994ZM16.7606 18.8994H11.2963C10.9127 18.8994 10.5448 18.747 10.2735 18.4758C10.0023 18.2045 9.84989 17.8366 9.84989 17.453V11.9887C9.84989 11.6051 10.0023 11.2372 10.2735 10.9659C10.5448 10.6947 10.9127 10.5423 11.2963 10.5423H16.7606C17.1442 10.5423 17.5121 10.6947 17.7834 10.9659C18.0546 11.2372 18.207 11.6051 18.207 11.9887V17.453C18.207 17.8366 18.0546 18.2045 17.7834 18.4758C17.5121 18.747 17.1442 18.8994 16.7606 18.8994Z" fill=""/>
</svg>
