<svg width="20" height="20" viewBox="0 0 20 20" fill="none" xmlns="http://www.w3.org/2000/svg">
<path d="M9.98093 13.2609L6.10093 17.1409C5.87144 17.3713 5.59872 17.5541 5.29841 17.6789C4.9981 17.8036 4.67612 17.8678 4.35093 17.8678C4.02574 17.8678 3.70376 17.8036 3.40345 17.6789C3.10314 17.5541 2.83042 17.3713 2.60093 17.1409C2.36933 16.9121 2.18545 16.6396 2.05995 16.3392C1.93445 16.0388 1.86983 15.7165 1.86983 15.3909C1.86983 15.0654 1.93445 14.743 2.05995 14.4426C2.18545 14.1422 2.36933 13.8697 2.60093 13.6409L6.48093 9.76093C6.66923 9.57263 6.77502 9.31723 6.77502 9.05093C6.77502 8.78463 6.66923 8.52923 6.48093 8.34093C6.29263 8.15263 6.03723 8.04684 5.77093 8.04684C5.50463 8.04684 5.24923 8.15263 5.06093 8.34093L1.18093 12.2309C0.399287 13.0817 -0.0234493 14.2016 0.00100474 15.3567C0.0254587 16.5118 0.495212 17.6127 1.31216 18.4297C2.12911 19.2466 3.23009 19.7164 4.38518 19.7409C5.54026 19.7653 6.66014 19.3426 7.51093 18.5609L11.4009 14.6809C11.4942 14.5877 11.5681 14.477 11.6186 14.3552C11.6691 14.2334 11.695 14.1028 11.695 13.9709C11.695 13.8391 11.6691 13.7085 11.6186 13.5867C11.5681 13.4649 11.4942 13.3542 11.4009 13.2609C11.3077 13.1677 11.197 13.0937 11.0752 13.0433C10.9534 12.9928 10.8228 12.9668 10.6909 12.9668C10.5591 12.9668 10.4285 12.9928 10.3067 13.0433C10.1849 13.0937 10.0742 13.1677 9.98093 13.2609ZM6.70093 13.0409C6.79437 13.1336 6.90519 13.2069 7.02702 13.2567C7.14886 13.3065 7.27932 13.3317 7.41093 13.3309C7.54254 13.3317 7.673 13.3065 7.79484 13.2567C7.91667 13.2069 8.02749 13.1336 8.12093 13.0409L13.0409 8.12093C13.2292 7.93263 13.335 7.67723 13.335 7.41093C13.335 7.14463 13.2292 6.88923 13.0409 6.70093C12.8526 6.51263 12.5972 6.40684 12.3309 6.40684C12.0646 6.40684 11.8092 6.51263 11.6209 6.70093L6.70093 11.6209C6.6072 11.7139 6.53281 11.8245 6.48204 11.9464C6.43127 12.0682 6.40513 12.1989 6.40513 12.3309C6.40513 12.4629 6.43127 12.5936 6.48204 12.7155C6.53281 12.8374 6.6072 12.948 6.70093 13.0409ZM18.8709 15.8709H17.8709V14.8709C17.8709 14.6057 17.7656 14.3514 17.578 14.1638C17.3905 13.9763 17.1361 13.8709 16.8709 13.8709C16.6057 13.8709 16.3514 13.9763 16.1638 14.1638C15.9763 14.3514 15.8709 14.6057 15.8709 14.8709V15.8709H14.8709C14.6057 15.8709 14.3514 15.9763 14.1638 16.1638C13.9763 16.3514 13.8709 16.6057 13.8709 16.8709C13.8709 17.1361 13.9763 17.3905 14.1638 17.578C14.3514 17.7656 14.6057 17.8709 14.8709 17.8709H15.8709V18.8709C15.8709 19.1361 15.9763 19.3905 16.1638 19.578C16.3514 19.7656 16.6057 19.8709 16.8709 19.8709C17.1361 19.8709 17.3905 19.7656 17.578 19.578C17.7656 19.3905 17.8709 19.1361 17.8709 18.8709V17.8709H18.8709C19.1361 17.8709 19.3905 17.7656 19.578 17.578C19.7656 17.3905 19.8709 17.1361 19.8709 16.8709C19.8709 16.6057 19.7656 16.3514 19.578 16.1638C19.3905 15.9763 19.1361 15.8709 18.8709 15.8709ZM14.6809 11.4009L18.5609 7.51093C19.3426 6.66014 19.7653 5.54026 19.7409 4.38518C19.7164 3.23009 19.2466 2.12911 18.4297 1.31216C17.6127 0.495212 16.5118 0.0254587 15.3567 0.00100474C14.2016 -0.0234493 13.0817 0.399287 12.2309 1.18093L8.34093 5.06093C8.24769 5.15417 8.17373 5.26486 8.12327 5.38668C8.07281 5.5085 8.04684 5.63907 8.04684 5.77093C8.04684 5.90279 8.07281 6.03336 8.12327 6.15518C8.17373 6.277 8.24769 6.38769 8.34093 6.48093C8.43417 6.57417 8.54486 6.64813 8.66668 6.69859C8.7885 6.74905 8.91907 6.77502 9.05093 6.77502C9.18279 6.77502 9.31336 6.74905 9.43518 6.69859C9.557 6.64813 9.66769 6.57417 9.76093 6.48093L13.6409 2.60093C13.8704 2.37054 14.1431 2.18772 14.4434 2.06298C14.7438 1.93824 15.0657 1.87403 15.3909 1.87403C15.7161 1.87403 16.0381 1.93824 16.3384 2.06298C16.6387 2.18772 16.9114 2.37054 17.1409 2.60093C17.3725 2.82974 17.5564 3.10224 17.6819 3.40264C17.8074 3.70304 17.872 4.02537 17.872 4.35093C17.872 4.67649 17.8074 4.99882 17.6819 5.29922C17.5564 5.59962 17.3725 5.87212 17.1409 6.10093L13.2609 9.98093C13.1672 10.0739 13.0928 10.1845 13.042 10.3064C12.9913 10.4282 12.9651 10.5589 12.9651 10.6909C12.9651 10.8229 12.9913 10.9536 13.042 11.0755C13.0928 11.1974 13.1672 11.308 13.2609 11.4009C13.3539 11.4947 13.4645 11.5691 13.5864 11.6198C13.7082 11.6706 13.8389 11.6967 13.9709 11.6967C14.1029 11.6967 14.2336 11.6706 14.3555 11.6198C14.4774 11.5691 14.588 11.4947 14.6809 11.4009Z" fill="#6667AB"/>
</svg>
