<svg width="17" height="17" viewBox="0 0 17 17" fill="none" xmlns="http://www.w3.org/2000/svg">
<path d="M8.36719 16.3281C9.45573 16.3281 10.4792 16.1198 11.4375 15.7031C12.401 15.2865 13.25 14.7109 13.9844 13.9766C14.7188 13.2422 15.2943 12.3958 15.7109 11.4375C16.1276 10.474 16.3359 9.44792 16.3359 8.35938C16.3359 7.27083 16.1276 6.2474 15.7109 5.28906C15.2943 4.32552 14.7188 3.47656 13.9844 2.74219C13.25 2.00781 12.401 1.43229 11.4375 1.01562C10.474 0.598958 9.44792 0.390625 8.35938 0.390625C7.27083 0.390625 6.24479 0.598958 5.28125 1.01562C4.32292 1.43229 3.47656 2.00781 2.74219 2.74219C2.01302 3.47656 1.4401 4.32552 1.02344 5.28906C0.606771 6.2474 0.398438 7.27083 0.398438 8.35938C0.398438 9.44792 0.606771 10.474 1.02344 11.4375C1.4401 12.3958 2.01562 13.2422 2.75 13.9766C3.48438 14.7109 4.33073 15.2865 5.28906 15.7031C6.2526 16.1198 7.27865 16.3281 8.36719 16.3281ZM8.36719 15C7.44531 15 6.58333 14.8281 5.78125 14.4844C4.97917 14.1406 4.27344 13.6667 3.66406 13.0625C3.0599 12.4531 2.58594 11.7474 2.24219 10.9453C1.90365 10.1432 1.73438 9.28125 1.73438 8.35938C1.73438 7.4375 1.90365 6.57552 2.24219 5.77344C2.58594 4.97135 3.0599 4.26562 3.66406 3.65625C4.26823 3.04688 4.97135 2.57292 5.77344 2.23438C6.57552 1.89062 7.4375 1.71875 8.35938 1.71875C9.28125 1.71875 10.1432 1.89062 10.9453 2.23438C11.7526 2.57292 12.4583 3.04688 13.0625 3.65625C13.6719 4.26562 14.1484 4.97135 14.4922 5.77344C14.8359 6.57552 15.0078 7.4375 15.0078 8.35938C15.0078 9.28125 14.8359 10.1432 14.4922 10.9453C14.1536 11.7474 13.6797 12.4531 13.0703 13.0625C12.4609 13.6667 11.7552 14.1406 10.9531 14.4844C10.151 14.8281 9.28906 15 8.36719 15ZM6.45312 10.1875C6.91146 10.6406 7.39062 11.0443 7.89062 11.3984C8.39062 11.7474 8.88802 12.013 9.38281 12.1953C9.8776 12.3724 10.3464 12.4375 10.7891 12.3906C11.237 12.3385 11.6328 12.1406 11.9766 11.7969C12.0026 11.7708 12.026 11.7474 12.0469 11.7266C12.0677 11.7005 12.0885 11.6745 12.1094 11.6484C12.2865 11.4453 12.3854 11.2266 12.4062 10.9922C12.4323 10.7526 12.3307 10.5469 12.1016 10.375C11.9818 10.2865 11.8568 10.1953 11.7266 10.1016C11.5964 10.0078 11.4479 9.90625 11.2812 9.79688C11.1198 9.68229 10.9323 9.54948 10.7188 9.39844C10.4896 9.23698 10.2917 9.17188 10.125 9.20312C9.95833 9.22917 9.78646 9.32812 9.60938 9.5L9.30469 9.8125C9.25781 9.85417 9.20052 9.875 9.13281 9.875C9.0651 9.86979 9.00521 9.85156 8.95312 9.82031C8.81771 9.74219 8.64323 9.61719 8.42969 9.44531C8.21615 9.27344 8 9.07552 7.78125 8.85156C7.56771 8.63802 7.3724 8.42448 7.19531 8.21094C7.01823 7.99219 6.89323 7.81771 6.82031 7.6875C6.79427 7.64062 6.77604 7.58594 6.76562 7.52344C6.75521 7.46094 6.77604 7.40365 6.82812 7.35156L7.14062 7.03125C7.31771 6.84375 7.41927 6.66927 7.44531 6.50781C7.47135 6.34635 7.40104 6.15104 7.23438 5.92188L6.27344 4.55469C6.16927 4.40365 6.04688 4.3099 5.90625 4.27344C5.76562 4.23177 5.61458 4.23958 5.45312 4.29688C5.29167 4.35417 5.1224 4.44792 4.94531 4.57812C4.92448 4.58854 4.90625 4.60417 4.89062 4.625C4.875 4.64062 4.85938 4.65365 4.84375 4.66406C4.5 5.01302 4.30208 5.40885 4.25 5.85156C4.20312 6.29427 4.26823 6.76302 4.44531 7.25781C4.6276 7.7526 4.89323 8.25 5.24219 8.75C5.59635 9.25 6 9.72917 6.45312 10.1875Z" fill="#29282D"/>
</svg>
