<svg width="17" height="14" viewBox="0 0 17 14" fill="" xmlns="http://www.w3.org/2000/svg">
<path d="M2.75098 13.6064H7.94629V11.8428H2.94238C2.66895 11.8428 2.45931 11.7744 2.31348 11.6377C2.1722 11.4964 2.10156 11.2799 2.10156 10.9883V7.625H0.337891V11.207C0.337891 11.9818 0.545247 12.5742 0.959961 12.9844C1.37467 13.3991 1.97168 13.6064 2.75098 13.6064ZM9.06055 13.6064H14.2422C15.026 13.6064 15.623 13.3991 16.0332 12.9844C16.4479 12.5742 16.6553 11.9818 16.6553 11.207V7.625H14.8916V10.9883C14.8916 11.2799 14.8187 11.4964 14.6729 11.6377C14.5316 11.7744 14.3242 11.8428 14.0508 11.8428H9.06055V13.6064ZM14.8916 6.51758H16.6553V2.93555C16.6553 2.16081 16.4479 1.56836 16.0332 1.1582C15.623 0.74349 15.026 0.536133 14.2422 0.536133H9.06055V2.2998H14.0508C14.3242 2.2998 14.5316 2.36816 14.6729 2.50488C14.8187 2.6416 14.8916 2.85579 14.8916 3.14746V6.51758ZM0.337891 6.51758H2.10156V3.14746C2.10156 2.85579 2.1722 2.6416 2.31348 2.50488C2.45931 2.36816 2.66895 2.2998 2.94238 2.2998H7.94629V0.536133H2.75098C1.97168 0.536133 1.37467 0.741211 0.959961 1.15137C0.545247 1.56152 0.337891 2.15625 0.337891 2.93555V6.51758ZM8.52051 10.6807C9.00814 10.6807 9.46842 10.5872 9.90137 10.4004C10.3389 10.209 10.7217 9.94694 11.0498 9.61426C11.3825 9.28158 11.6423 8.89648 11.8291 8.45898C12.0205 8.02148 12.1162 7.55436 12.1162 7.05762C12.1162 6.56543 12.0205 6.10286 11.8291 5.66992C11.6423 5.23698 11.3825 4.85645 11.0498 4.52832C10.7217 4.19564 10.3389 3.93587 9.90137 3.74902C9.46842 3.55762 9.00814 3.46191 8.52051 3.46191C8.01921 3.46191 7.5498 3.55762 7.1123 3.74902C6.67936 3.93587 6.29427 4.19564 5.95703 4.52832C5.62435 4.85645 5.3623 5.23698 5.1709 5.66992C4.98405 6.10286 4.89062 6.56543 4.89062 7.05762C4.89062 7.55436 4.98405 8.02148 5.1709 8.45898C5.3623 8.89648 5.62435 9.28158 5.95703 9.61426C6.28971 9.94694 6.6748 10.209 7.1123 10.4004C7.5498 10.5872 8.01921 10.6807 8.52051 10.6807ZM8.52051 9.58008C8.05566 9.58008 7.63184 9.46615 7.24902 9.23828C6.86621 9.01042 6.56087 8.70508 6.33301 8.32227C6.10514 7.93945 5.99121 7.5179 5.99121 7.05762C5.99121 6.60189 6.10514 6.18717 6.33301 5.81348C6.56543 5.43522 6.87305 5.13216 7.25586 4.9043C7.63867 4.67643 8.06022 4.5625 8.52051 4.5625C8.97168 4.5625 9.38639 4.67643 9.76465 4.9043C10.1475 5.13216 10.4505 5.43522 10.6738 5.81348C10.9017 6.18717 11.0156 6.60189 11.0156 7.05762C11.0156 7.5179 10.9017 7.93945 10.6738 8.32227C10.4505 8.70052 10.1497 9.00586 9.77148 9.23828C9.39323 9.46615 8.97624 9.58008 8.52051 9.58008ZM8.51367 8.7666C8.81901 8.7666 9.09928 8.69141 9.35449 8.54102C9.61426 8.38607 9.81934 8.18099 9.96973 7.92578C10.1247 7.66602 10.2021 7.37891 10.2021 7.06445C10.2021 6.75456 10.1247 6.47201 9.96973 6.2168C9.81934 5.96159 9.61426 5.75879 9.35449 5.6084C9.09928 5.45345 8.81901 5.37598 8.51367 5.37598C8.19922 5.37598 7.91211 5.45345 7.65234 5.6084C7.39714 5.75879 7.19206 5.96159 7.03711 6.2168C6.88216 6.47201 6.80469 6.75456 6.80469 7.06445C6.80469 7.37891 6.88216 7.66602 7.03711 7.92578C7.19206 8.18099 7.39714 8.38607 7.65234 8.54102C7.91211 8.69141 8.19922 8.7666 8.51367 8.7666Z" fill=""/>
</svg>
