<svg width="18" height="14" viewBox="0 0 18 14" fill="" xmlns="http://www.w3.org/2000/svg">
<path d="M16.4307 10.7764L12.4043 7.00293C12.2493 6.86621 12.0853 6.76367 11.9121 6.69531C11.7389 6.62695 11.5635 6.59277 11.3857 6.59277C11.1989 6.59277 11.0212 6.62695 10.8525 6.69531C10.6839 6.75911 10.5221 6.85938 10.3672 6.99609L7.28418 9.75098L6.02637 8.61621C5.88509 8.49316 5.7347 8.39974 5.5752 8.33594C5.42025 8.26758 5.26302 8.2334 5.10352 8.2334C4.93945 8.2334 4.78678 8.2653 4.64551 8.3291C4.50879 8.38835 4.36979 8.48177 4.22852 8.60938L1.69238 10.8516C1.7015 11.5033 1.88379 12 2.23926 12.3418C2.59473 12.6882 3.10514 12.8613 3.77051 12.8613H14.1885C14.9951 12.8613 15.5898 12.6813 15.9727 12.3213C16.36 11.9658 16.5127 11.4508 16.4307 10.7764ZM6.49805 7.29688C6.80339 7.29688 7.08366 7.22168 7.33887 7.07129C7.59408 6.9209 7.79688 6.7181 7.94727 6.46289C8.10221 6.20312 8.17969 5.91829 8.17969 5.6084C8.17969 5.30306 8.10221 5.02279 7.94727 4.76758C7.79688 4.50781 7.59408 4.30273 7.33887 4.15234C7.08366 3.9974 6.80339 3.91992 6.49805 3.91992C6.18815 3.91992 5.90332 3.9974 5.64355 4.15234C5.38835 4.30273 5.18327 4.50781 5.02832 4.76758C4.87793 5.02279 4.80273 5.30306 4.80273 5.6084C4.80273 5.91829 4.87793 6.20312 5.02832 6.46289C5.18327 6.7181 5.38835 6.9209 5.64355 7.07129C5.90332 7.22168 6.18815 7.29688 6.49805 7.29688ZM3.25098 13.6064H14.7422C15.526 13.6064 16.123 13.3991 16.5332 12.9844C16.9479 12.5742 17.1553 11.9818 17.1553 11.207V2.93555C17.1553 2.16081 16.9479 1.56836 16.5332 1.1582C16.123 0.74349 15.526 0.536133 14.7422 0.536133H3.25098C2.47168 0.536133 1.87467 0.741211 1.45996 1.15137C1.04525 1.56152 0.837891 2.15625 0.837891 2.93555V11.207C0.837891 11.9818 1.04525 12.5742 1.45996 12.9844C1.87467 13.3991 2.47168 13.6064 3.25098 13.6064ZM3.44238 11.8428C3.16895 11.8428 2.95931 11.7744 2.81348 11.6377C2.6722 11.4964 2.60156 11.2799 2.60156 10.9883V3.14746C2.60156 2.85579 2.6722 2.6416 2.81348 2.50488C2.95931 2.36816 3.16895 2.2998 3.44238 2.2998H14.5508C14.8242 2.2998 15.0316 2.36816 15.1729 2.50488C15.3187 2.6416 15.3916 2.85579 15.3916 3.14746V10.9883C15.3916 11.2799 15.3187 11.4964 15.1729 11.6377C15.0316 11.7744 14.8242 11.8428 14.5508 11.8428H3.44238Z" fill=""/>
</svg>
