<svg width="21" height="22" viewBox="0 0 21 22" fill="none" xmlns="http://www.w3.org/2000/svg">
<path d="M9.49412 0.910095L19.4018 2.32635L20.8172 12.2351L11.617 21.4352C11.4293 21.6228 11.1748 21.7282 10.9094 21.7282C10.644 21.7282 10.3894 21.6228 10.2018 21.4352L0.293045 11.5265C0.105409 11.3387 0 11.0842 0 10.8188C0 10.5534 0.105409 10.2989 0.293045 10.1112L9.49412 0.910095ZM10.2018 3.03397L2.41591 10.8188L10.9094 19.3113L18.6943 11.5265L17.6333 4.0949L10.2018 3.03397ZM12.3237 9.40359C11.9481 9.02798 11.7373 8.51859 11.7374 7.98745C11.7374 7.7245 11.7893 7.46412 11.89 7.22116C11.9906 6.97821 12.1381 6.75753 12.3241 6.57162C12.5101 6.38563 12.7309 6.23821 12.9739 6.1376C13.2168 6.03701 13.4772 5.98526 13.7403 5.98531C14.2713 5.9854 14.7806 6.19647 15.1562 6.57207C15.5316 6.94768 15.7425 7.45707 15.7424 7.98821C15.7423 8.51927 15.5312 9.02859 15.1556 9.40404C14.78 9.77957 14.2706 9.99048 13.7395 9.99033C13.2084 9.99025 12.6991 9.77919 12.3237 9.40359Z" fill="#333333"/>
</svg>
