<svg width="17" height="17" viewBox="0 0 17 17" fill="none" xmlns="http://www.w3.org/2000/svg">
<path d="M8.36719 16.3281C9.45573 16.3281 10.4792 16.1198 11.4375 15.7031C12.401 15.2865 13.25 14.7109 13.9844 13.9766C14.7188 13.2422 15.2943 12.3958 15.7109 11.4375C16.1276 10.474 16.3359 9.44792 16.3359 8.35938C16.3359 7.27083 16.1276 6.2474 15.7109 5.28906C15.2943 4.32552 14.7188 3.47656 13.9844 2.74219C13.25 2.00781 12.401 1.43229 11.4375 1.01562C10.474 0.598958 9.44792 0.390625 8.35938 0.390625C7.27083 0.390625 6.24479 0.598958 5.28125 1.01562C4.32292 1.43229 3.47656 2.00781 2.74219 2.74219C2.01302 3.47656 1.4401 4.32552 1.02344 5.28906C0.606771 6.2474 0.398438 7.27083 0.398438 8.35938C0.398438 9.44792 0.606771 10.474 1.02344 11.4375C1.4401 12.3958 2.01562 13.2422 2.75 13.9766C3.48438 14.7109 4.33073 15.2865 5.28906 15.7031C6.2526 16.1198 7.27865 16.3281 8.36719 16.3281ZM8.36719 15C7.44531 15 6.58333 14.8281 5.78125 14.4844C4.97917 14.1406 4.27344 13.6667 3.66406 13.0625C3.0599 12.4531 2.58594 11.7474 2.24219 10.9453C1.90365 10.1432 1.73438 9.28125 1.73438 8.35938C1.73438 7.4375 1.90365 6.57552 2.24219 5.77344C2.58594 4.97135 3.0599 4.26562 3.66406 3.65625C4.26823 3.04688 4.97135 2.57292 5.77344 2.23438C6.57552 1.89062 7.4375 1.71875 8.35938 1.71875C9.28125 1.71875 10.1432 1.89062 10.9453 2.23438C11.7526 2.57292 12.4583 3.04688 13.0625 3.65625C13.6719 4.26562 14.1484 4.97135 14.4922 5.77344C14.8359 6.57552 15.0078 7.4375 15.0078 8.35938C15.0078 9.28125 14.8359 10.1432 14.4922 10.9453C14.1536 11.7474 13.6797 12.4531 13.0703 13.0625C12.4609 13.6667 11.7552 14.1406 10.9531 14.4844C10.151 14.8281 9.28906 15 8.36719 15ZM4.78906 12.3125H11.9297C12.0859 12.3125 12.2005 12.2682 12.2734 12.1797C12.3516 12.0859 12.3906 11.9661 12.3906 11.8203C12.3906 11.6068 12.3073 11.3307 12.1406 10.9922C11.9792 10.6484 11.7318 10.3073 11.3984 9.96875C11.0703 9.625 10.6536 9.33594 10.1484 9.10156C9.64323 8.86719 9.04688 8.75 8.35938 8.75C7.67188 8.75 7.07552 8.86719 6.57031 9.10156C6.0651 9.33594 5.64583 9.625 5.3125 9.96875C4.98438 10.3073 4.73698 10.6484 4.57031 10.9922C4.40885 11.3307 4.32812 11.6068 4.32812 11.8203C4.32812 11.9661 4.36458 12.0859 4.4375 12.1797C4.51562 12.2682 4.63281 12.3125 4.78906 12.3125ZM8.35938 8.10938C8.72917 8.11458 9.0651 8.02083 9.36719 7.82812C9.67448 7.63542 9.91667 7.375 10.0938 7.04688C10.276 6.71354 10.3672 6.33854 10.3672 5.92188C10.3672 5.53125 10.276 5.17448 10.0938 4.85156C9.91667 4.52344 9.67448 4.26302 9.36719 4.07031C9.0651 3.8724 8.72917 3.77344 8.35938 3.77344C7.98958 3.77344 7.65104 3.8724 7.34375 4.07031C7.04167 4.26302 6.79948 4.52344 6.61719 4.85156C6.4401 5.17448 6.35156 5.53125 6.35156 5.92188C6.35156 6.33854 6.4401 6.71094 6.61719 7.03906C6.79948 7.36719 7.04167 7.6276 7.34375 7.82031C7.65104 8.01302 7.98958 8.10938 8.35938 8.10938Z" fill="#29282D"/>
</svg>
