<svg width="20" height="20" viewBox="0 0 20 20" fill="none" xmlns="http://www.w3.org/2000/svg">
<path d="M17.1167 5.2415L15.8334 3.95817L14.6584 2.78317C14.5807 2.70547 14.4885 2.64384 14.387 2.60179C14.2854 2.55974 14.1766 2.53809 14.0667 2.53809C13.9569 2.53809 13.8481 2.55974 13.7465 2.60179C13.645 2.64384 13.5528 2.70547 13.4751 2.78317C13.3974 2.86087 13.3357 2.95311 13.2937 3.05463C13.2516 3.15615 13.23 3.26495 13.23 3.37484C13.23 3.48472 13.2516 3.59353 13.2937 3.69505C13.3357 3.79656 13.3974 3.88881 13.4751 3.9665L14.3084 4.79984L13.6167 6.87484C13.4705 7.31569 13.4499 7.78857 13.5574 8.24045C13.6648 8.69233 13.896 9.10535 14.2251 9.43317L16.6834 11.9332V15.8332C16.6834 16.0542 16.5956 16.2661 16.4393 16.4224C16.2831 16.5787 16.0711 16.6665 15.8501 16.6665C15.6291 16.6665 15.4171 16.5787 15.2608 16.4224C15.1045 16.2661 15.0167 16.0542 15.0167 15.8332V14.1665C15.0167 13.5035 14.7534 12.8676 14.2845 12.3987C13.8157 11.9299 13.1798 11.6665 12.5167 11.6665H11.6667V4.1665C11.6667 3.50346 11.4034 2.86758 10.9345 2.39874C10.4657 1.9299 9.82979 1.6665 9.16675 1.6665H4.16675C3.50371 1.6665 2.86782 1.9299 2.39898 2.39874C1.93014 2.86758 1.66675 3.50346 1.66675 4.1665V15.8332C1.66675 16.4962 1.93014 17.1321 2.39898 17.6009C2.86782 18.0698 3.50371 18.3332 4.16675 18.3332H9.16675C9.82979 18.3332 10.4657 18.0698 10.9345 17.6009C11.4034 17.1321 11.6667 16.4962 11.6667 15.8332V13.3332H12.5001C12.7211 13.3332 12.9331 13.421 13.0893 13.5772C13.2456 13.7335 13.3334 13.9455 13.3334 14.1665V15.8332C13.3334 16.4962 13.5968 17.1321 14.0656 17.6009C14.5345 18.0698 15.1704 18.3332 15.8334 18.3332C16.4965 18.3332 17.1323 18.0698 17.6012 17.6009C18.07 17.1321 18.3334 16.4962 18.3334 15.8332V8.1915C18.3344 7.64396 18.2274 7.1016 18.0187 6.59542C17.8099 6.08923 17.5034 5.62916 17.1167 5.2415ZM10.0001 15.8332C10.0001 16.0542 9.91228 16.2661 9.756 16.4224C9.59972 16.5787 9.38776 16.6665 9.16675 16.6665H4.16675C3.94573 16.6665 3.73377 16.5787 3.57749 16.4224C3.42121 16.2661 3.33341 16.0542 3.33341 15.8332V9.99984H10.0001V15.8332ZM10.0001 8.33317H3.33341V4.1665C3.33341 3.94549 3.42121 3.73353 3.57749 3.57725C3.73377 3.42097 3.94573 3.33317 4.16675 3.33317H9.16675C9.38776 3.33317 9.59972 3.42097 9.756 3.57725C9.91228 3.73353 10.0001 3.94549 10.0001 4.1665V8.33317ZM16.6667 9.5165L15.3834 8.23317C15.2777 8.1254 15.2033 7.99095 15.1681 7.84418C15.1329 7.69741 15.1382 7.54383 15.1834 7.39984L15.6084 6.1165L15.9334 6.44984C16.3963 6.91209 16.6596 7.53736 16.6667 8.1915V9.5165Z" fill="#EBC277"/>
</svg>
