<svg width="24" height="24" fill="#000" xmlns="http://www.w3.org/2000/svg"><path d="M9.92 2.044c-1.361.155-2.794.69-3.979 1.486-2.116 1.422-3.54 3.723-3.887 6.28-.086.637-.086 1.694.001 2.34a9.014 9.014 0 0 0 6.64 7.529 8.975 8.975 0 0 0 7.544-1.404l.38-.275 1.92 1.918c1.318 1.316 1.968 1.938 2.07 1.98.185.077.59.08.768.006.378-.158.653-.609.608-.999-.045-.392-.096-.45-2.089-2.415l-1.897-1.87.262-.36a8.988 8.988 0 0 0 1.416-7.573c-.565-2.141-1.872-3.96-3.75-5.22-.484-.324-1.534-.834-2.114-1.025a10.626 10.626 0 0 0-1.812-.4c-.394-.049-1.644-.047-2.081.002m2.2 2.051a7.004 7.004 0 0 1 4.834 3.235 7.004 7.004 0 0 1 0 7.341 7.01 7.01 0 0 1-6.848 3.269 7.022 7.022 0 0 1-4.536-2.532A6.998 6.998 0 0 1 7.888 4.736c.768-.387 1.479-.585 2.552-.712.264-.032 1.34.014 1.68.071"/></svg>