<svg width="23" height="26" viewBox="0 0 23 26" fill="none" xmlns="http://www.w3.org/2000/svg">
<path d="M21.7689 4.99102C21.6706 4.87875 21.5502 4.78799 21.4152 4.72439C21.2802 4.6608 21.1335 4.62576 20.9843 4.62145C18.667 4.56087 15.7346 2.08293 13.7959 1.11053C12.5983 0.511746 11.8077 0.116931 11.2139 0.0129263C11.0934 -0.00464083 10.9709 -0.00430057 10.8504 0.0139361C10.2567 0.117941 9.46606 0.512755 8.2695 1.11154C6.33077 2.08293 3.39844 4.56087 1.08105 4.62145C0.931777 4.62598 0.785025 4.66112 0.649891 4.72469C0.514757 4.78826 0.394121 4.87891 0.295459 4.99102C0.0909557 5.22239 -0.0145574 5.52479 0.0016196 5.83316C0.499429 15.9539 4.1295 22.2175 10.499 25.8576C10.6646 25.9515 10.8484 26 11.0312 26C11.2139 26 11.3977 25.9515 11.5643 25.8576C17.9339 22.2175 21.5629 15.9539 22.0618 5.83316C22.0789 5.52484 21.9736 5.22221 21.7689 4.99102ZM16.704 8.97148L11.3291 16.9031C11.1362 17.1879 10.8333 17.3767 10.5334 17.3767C10.2325 17.3767 9.89824 17.2121 9.6872 17.0011L5.89859 13.2114C5.7749 13.0873 5.70545 12.9192 5.70545 12.7439C5.70545 12.5687 5.7749 12.4006 5.89859 12.2764L6.83464 11.3383C6.95905 11.2151 7.12706 11.146 7.30215 11.146C7.47724 11.146 7.64526 11.2151 7.76967 11.3383L10.2335 13.8022L14.5138 7.48411C14.6129 7.33953 14.7651 7.24001 14.9372 7.20728C15.1094 7.17455 15.2875 7.21127 15.4327 7.30942L16.5283 8.0526C16.673 8.15148 16.7728 8.30363 16.8057 8.4758C16.8386 8.64797 16.802 8.82618 16.704 8.97148Z" fill="#6667AB"/>
</svg>
