<svg width="18" height="18" viewBox="0 0 18 18" fill="none" xmlns="http://www.w3.org/2000/svg">
<path d="M3.92188 16.9531C4.08333 17.0781 4.26562 17.1198 4.46875 17.0781C4.67188 17.0417 4.89323 16.9375 5.13281 16.7656L9.26562 13.7266L13.4062 16.7656C13.6458 16.9375 13.8672 17.0417 14.0703 17.0781C14.2734 17.1198 14.4557 17.0781 14.6172 16.9531C14.7786 16.8333 14.875 16.6719 14.9062 16.4688C14.9427 16.2656 14.9115 16.0234 14.8125 15.7422L13.1797 10.8828L17.3516 7.88281C17.5964 7.71094 17.7656 7.53385 17.8594 7.35156C17.9531 7.16927 17.9688 6.98177 17.9062 6.78906C17.8438 6.60156 17.7214 6.46094 17.5391 6.36719C17.3568 6.27344 17.1146 6.22917 16.8125 6.23438L11.6953 6.26562L10.1406 1.38281C10.0469 1.09635 9.92708 0.880208 9.78125 0.734375C9.64062 0.588542 9.46875 0.515625 9.26562 0.515625C9.06771 0.515625 8.89583 0.588542 8.75 0.734375C8.60938 0.880208 8.49219 1.09635 8.39844 1.38281L6.84375 6.26562L1.72656 6.23438C1.42448 6.22917 1.18229 6.27344 1 6.36719C0.817708 6.46094 0.695312 6.60156 0.632812 6.78906C0.570312 6.98177 0.585938 7.16927 0.679688 7.35156C0.773438 7.53385 0.942708 7.71094 1.1875 7.88281L5.35938 10.8828L3.72656 15.7422C3.6276 16.0234 3.59375 16.2656 3.625 16.4688C3.66146 16.6719 3.76042 16.8333 3.92188 16.9531ZM5.04688 15.4062C5.03646 15.3958 5.03646 15.3724 5.04688 15.3359L6.60156 10.8672C6.63802 10.7682 6.65365 10.6745 6.64844 10.5859C6.64844 10.4974 6.625 10.4167 6.57812 10.3438C6.53125 10.2656 6.46354 10.1953 6.375 10.1328L2.48438 7.44531C2.44792 7.42448 2.4349 7.40365 2.44531 7.38281C2.45052 7.36719 2.47396 7.35938 2.51562 7.35938L7.24219 7.44531C7.40365 7.45052 7.53646 7.41927 7.64062 7.35156C7.74479 7.27865 7.82031 7.16146 7.86719 7L9.22656 2.47656C9.23698 2.4349 9.25 2.41406 9.26562 2.41406C9.28646 2.41406 9.30208 2.4349 9.3125 2.47656L10.6719 7C10.7188 7.16146 10.7943 7.27865 10.8984 7.35156C11.0026 7.41927 11.1354 7.45052 11.2969 7.44531L16.0234 7.35938C16.0651 7.35938 16.0885 7.36719 16.0938 7.38281C16.1042 7.40365 16.0911 7.42448 16.0547 7.44531L12.1641 10.1328C12.0755 10.1953 12.0078 10.2656 11.9609 10.3438C11.9141 10.4167 11.888 10.4974 11.8828 10.5859C11.8828 10.6745 11.901 10.7682 11.9375 10.8672L13.4922 15.3359C13.4974 15.3724 13.4974 15.3958 13.4922 15.4062C13.4818 15.4219 13.4583 15.4167 13.4219 15.3906L9.66406 12.5234C9.53906 12.4245 9.40625 12.375 9.26562 12.375C9.13021 12.375 9 12.4245 8.875 12.5234L5.11719 15.3906C5.08073 15.4167 5.05729 15.4219 5.04688 15.4062Z" fill="#29282D"/>
</svg>
