<svg width="20" height="20" viewBox="0 0 20 20" fill="none" xmlns="http://www.w3.org/2000/svg">
<path d="M10.0001 4.1665C8.53733 4.16654 7.10032 4.55162 5.83352 5.28304C4.56672 6.01446 3.51477 7.06644 2.78339 8.33326C2.05202 9.60008 1.66698 11.0371 1.66699 12.4999C1.667 13.9627 2.05205 15.3997 2.78345 16.6665C2.89395 16.8588 3.07632 16.9993 3.29042 17.0571C3.50453 17.1149 3.73283 17.0853 3.92511 16.9748C4.1174 16.8643 4.2579 16.682 4.31573 16.4679C4.37355 16.2538 4.34395 16.0255 4.23345 15.8332C3.64298 14.8216 3.33235 13.6711 3.33345 12.4998C3.33385 11.4775 3.56937 10.4689 4.0218 9.55214C4.47423 8.63535 5.13146 7.8349 5.94265 7.21268C6.75385 6.59046 7.69728 6.16314 8.7 5.96377C9.70272 5.76439 10.7379 5.7983 11.7254 6.06288C12.7129 6.32745 13.6263 6.8156 14.3951 7.48957C15.1638 8.16355 15.7672 9.0053 16.1587 9.94973C16.5502 10.8942 16.7192 11.916 16.6527 12.9362C16.5861 13.9563 16.2859 14.9476 15.7751 15.8332C15.72 15.9283 15.6843 16.0334 15.67 16.1423C15.6556 16.2513 15.663 16.3621 15.6917 16.4682C15.7203 16.5743 15.7697 16.6737 15.8369 16.7606C15.9042 16.8476 15.988 16.9204 16.0834 16.9748C16.2748 17.0835 16.5013 17.112 16.7137 17.0543C16.926 16.9965 17.1068 16.8571 17.2168 16.6665C17.9482 15.3997 18.3332 13.9627 18.3332 12.4999C18.3332 11.0371 17.9482 9.60008 17.2168 8.33326C16.4855 7.06644 15.4335 6.01446 14.1667 5.28304C12.8999 4.55162 11.4629 4.16654 10.0001 4.1665ZM12.3668 8.9665L11.0751 10.2498C10.7408 10.085 10.3729 9.99943 10.0001 9.99984C9.50566 9.99984 9.02231 10.1465 8.61119 10.4212C8.20007 10.6959 7.87963 11.0863 7.69041 11.5431C7.5012 11.9999 7.45169 12.5026 7.54815 12.9876C7.64461 13.4725 7.88272 13.918 8.23235 14.2676C8.58198 14.6172 9.02744 14.8553 9.51239 14.9518C9.99734 15.0483 10.5 14.9988 10.9568 14.8095C11.4136 14.6203 11.8041 14.2999 12.0788 13.8888C12.3535 13.4776 12.5001 12.9943 12.5001 12.4998C12.4995 12.1298 12.414 11.7649 12.2501 11.4332L13.5418 10.1498C13.6199 10.0724 13.6819 9.9802 13.7242 9.87865C13.7665 9.7771 13.7883 9.66818 13.7883 9.55817C13.7883 9.44816 13.7665 9.33924 13.7242 9.23769C13.6819 9.13614 13.6199 9.04397 13.5418 8.9665C13.3856 8.8113 13.1744 8.72418 12.9543 8.72418C12.7341 8.72418 12.5229 8.8113 12.3668 8.9665ZM10.0001 13.3332C9.7791 13.3332 9.56714 13.2454 9.41086 13.0891C9.25458 12.9328 9.16678 12.7209 9.16678 12.4998C9.16678 12.2788 9.25458 12.0669 9.41086 11.9106C9.56714 11.7543 9.7791 11.6665 10.0001 11.6665C10.2176 11.6652 10.4269 11.7489 10.5834 11.8998C10.6632 11.978 10.7264 12.0714 10.7694 12.1745C10.8123 12.2775 10.8341 12.3882 10.8334 12.4998C10.8334 12.7209 10.7457 12.9328 10.5894 13.0891C10.4331 13.2454 10.2211 13.3332 10.0001 13.3332Z" fill="#EBC277"/>
</svg>
