<svg width="20" height="20" viewBox="0 0 20 20" fill="none" xmlns="http://www.w3.org/2000/svg">
<path fill-rule="evenodd" clip-rule="evenodd" d="M10.0001 18.3332C14.6025 18.3332 18.3334 14.6022 18.3334 9.99984C18.3334 5.39746 14.6025 1.6665 10.0001 1.6665C5.39771 1.6665 1.66675 5.39746 1.66675 9.99984C1.66675 14.6022 5.39771 18.3332 10.0001 18.3332ZM10.0001 16.6665C13.682 16.6665 16.6667 13.6817 16.6667 9.99984C16.6667 6.31794 13.682 3.33317 10.0001 3.33317C6.31818 3.33317 3.33341 6.31794 3.33341 9.99984C3.33341 13.6817 6.31818 16.6665 10.0001 16.6665Z" fill="#EBC277"/>
<path d="M5.83325 7.49984C5.83325 7.0396 6.20635 6.6665 6.66659 6.6665C7.12682 6.6665 7.49992 7.0396 7.49992 7.49984V12.4998C7.49992 12.9601 7.12682 13.3332 6.66659 13.3332C6.20635 13.3332 5.83325 12.9601 5.83325 12.4998V7.49984Z" fill="#EBC277"/>
<path d="M9.16659 7.49984C9.16659 7.0396 9.53968 6.6665 9.99992 6.6665C10.4602 6.6665 10.8333 7.0396 10.8333 7.49984V12.4998C10.8333 12.9601 10.4602 13.3332 9.99992 13.3332C9.53968 13.3332 9.16659 12.9601 9.16659 12.4998V7.49984Z" fill="#EBC277"/>
<path d="M12.4999 7.49984C12.4999 7.0396 12.873 6.6665 13.3333 6.6665C13.7935 6.6665 14.1666 7.0396 14.1666 7.49984V10.4165C14.1666 10.8767 13.7935 11.2498 13.3333 11.2498C12.873 11.2498 12.4999 10.8767 12.4999 10.4165V7.49984Z" fill="#EBC277"/>
<path d="M6.66659 11.2498C6.20635 11.2498 5.83325 10.8767 5.83325 10.4165C5.83325 9.95627 6.20635 9.58317 6.66659 9.58317H13.3333C13.7935 9.58317 14.1666 9.95627 14.1666 10.4165C14.1666 10.8767 13.7935 11.2498 13.3333 11.2498H6.66659Z" fill="#EBC277"/>
</svg>
