<svg width="27" height="29" viewBox="0 0 27 29" fill="none" xmlns="http://www.w3.org/2000/svg">
<path d="M8.42083 6.29377C8.17319 6.25772 7.92067 6.30757 7.7053 6.43501H7.68664C7.18697 6.72815 6.73659 7.09725 6.35284 7.53163C6.03305 7.90072 5.85983 8.27382 5.81453 8.63358C5.78788 8.84678 5.80653 9.06264 5.86916 9.2665L5.89314 9.27983C6.25291 10.3365 6.72194 11.3532 7.2949 12.3099C8.03369 13.6536 8.94284 14.8964 9.99981 16.0075L10.0318 16.0528L10.0824 16.0901L10.1131 16.1261L10.1504 16.158C11.2653 17.2182 12.511 18.1317 13.8573 18.8763C15.3963 19.7144 16.3304 20.1101 16.8913 20.2754V20.2834C17.0552 20.334 17.2045 20.3566 17.355 20.3566C17.8328 20.3213 18.285 20.1271 18.6395 19.805C19.0726 19.4212 19.439 18.9695 19.7242 18.4672V18.4579C19.992 17.9515 19.9014 17.4745 19.515 17.1507C18.7388 16.4725 17.8995 15.8702 17.0086 15.3519C16.4117 15.0281 15.8054 15.224 15.5602 15.5518L15.0365 16.2127C14.7674 16.5405 14.2797 16.4951 14.2797 16.4951L14.2664 16.5031C10.6274 15.5744 9.65603 11.8901 9.65603 11.8901C9.65603 11.8901 9.61073 11.3891 9.94784 11.1333L10.6034 10.6056C10.9179 10.3498 11.1364 9.74486 10.7993 9.14791C10.2844 8.25618 9.68327 7.41714 9.00446 6.64287C8.8564 6.46065 8.64877 6.33655 8.41817 6.29243L8.42083 6.29377ZM14.5702 4.69214C14.3935 4.69214 14.224 4.76233 14.0991 4.88727C13.9741 5.01222 13.9039 5.18168 13.9039 5.35837C13.9039 5.53507 13.9741 5.70453 14.0991 5.82947C14.224 5.95442 14.3935 6.02461 14.5702 6.02461C16.2544 6.02461 17.6535 6.57492 18.7608 7.63023C19.3298 8.20719 19.7735 8.89075 20.0639 9.6396C20.3558 10.3898 20.489 11.1906 20.4544 11.9927C20.4469 12.1694 20.51 12.3418 20.6297 12.472C20.7494 12.6022 20.9159 12.6795 21.0926 12.687C21.2693 12.6944 21.4417 12.6313 21.5719 12.5116C21.7021 12.3919 21.7794 12.2254 21.7868 12.0487C21.8282 11.062 21.6644 10.0774 21.3058 9.15724C20.9457 8.23269 20.3997 7.39188 19.7015 6.68684L19.6882 6.67352C18.3144 5.36104 16.5769 4.69214 14.5702 4.69214Z" fill="#6667AB"/>
<path d="M14.5217 6.88268C14.345 6.88268 14.1755 6.95287 14.0506 7.07782C13.9257 7.20276 13.8555 7.37222 13.8555 7.54891C13.8555 7.72561 13.9257 7.89507 14.0506 8.02001C14.1755 8.14496 14.345 8.21515 14.5217 8.21515H14.5444C15.7596 8.30176 16.6443 8.70683 17.2639 9.37173C17.8995 10.0566 18.2286 10.9081 18.2033 11.9607C18.1992 12.1374 18.2655 12.3085 18.3876 12.4363C18.5097 12.5641 18.6775 12.6382 18.8542 12.6423C19.0309 12.6463 19.202 12.58 19.3298 12.458C19.4576 12.3359 19.5317 12.1681 19.5358 11.9914C19.5678 10.6096 19.1227 9.41704 18.2406 8.46565V8.46299C17.3385 7.49562 16.1007 6.98395 14.611 6.88401L14.5883 6.88135L14.5217 6.88268Z" fill="#6667AB"/>
<path d="M14.4982 9.1144C14.4091 9.10653 14.3192 9.11671 14.2341 9.14432C14.149 9.17194 14.0703 9.21643 14.0027 9.27514C13.9351 9.33385 13.8801 9.40557 13.8409 9.48602C13.8016 9.56647 13.779 9.654 13.7743 9.74338C13.7697 9.83277 13.7831 9.92218 13.8137 10.0063C13.8444 10.0904 13.8917 10.1674 13.9528 10.2328C14.0139 10.2982 14.0875 10.3507 14.1694 10.387C14.2512 10.4233 14.3394 10.4428 14.4289 10.4442C14.9859 10.4735 15.3417 10.6414 15.5655 10.8666C15.7907 11.0931 15.9586 11.4569 15.9893 12.0258C15.9909 12.1152 16.0106 12.2034 16.047 12.2851C16.0835 12.3667 16.136 12.4402 16.2015 12.5011C16.2669 12.562 16.344 12.6092 16.428 12.6397C16.5121 12.6702 16.6014 12.6835 16.6907 12.6787C16.78 12.674 16.8674 12.6513 16.9478 12.6121C17.0281 12.5728 17.0998 12.5178 17.1584 12.4503C17.217 12.3828 17.2615 12.3042 17.2891 12.2191C17.3167 12.134 17.3269 12.0443 17.3191 11.9552C17.2764 11.1557 17.0259 10.4495 16.5129 9.92987C15.9973 9.4102 15.295 9.15703 14.4982 9.1144Z" fill="#6667AB"/>
<path fill-rule="evenodd" clip-rule="evenodd" d="M7.22294 1.20644C11.4629 0.258661 15.8599 0.258661 20.0999 1.20644L20.5516 1.30638C21.7911 1.58346 22.9294 2.19877 23.8402 3.08392C24.751 3.96907 25.3986 5.08941 25.7109 6.32046C26.7872 10.5616 26.7872 15.0043 25.7109 19.2454C25.3986 20.4764 24.751 21.5968 23.8402 22.4819C22.9294 23.3671 21.7911 23.9824 20.5516 24.2595L20.0986 24.3594C17.443 24.9533 14.7181 25.177 12.0012 25.0243L8.46613 28.1876C8.33286 28.3069 8.17 28.3883 7.99455 28.4232C7.81911 28.4581 7.63751 28.4453 7.46871 28.3861C7.29991 28.3269 7.15009 28.2234 7.03491 28.0865C6.91972 27.9497 6.84339 27.7844 6.81387 27.608L6.22891 24.1142C5.10722 23.7652 4.09378 23.1344 3.28545 22.2819C2.47712 21.4295 1.90092 20.384 1.61191 19.2454C0.535613 15.0043 0.535613 10.5616 1.61191 6.32046C1.92427 5.08941 2.57182 3.96907 3.48261 3.08392C4.3934 2.19877 5.53177 1.58346 6.77123 1.30638L7.22294 1.20644ZM19.6642 3.15584C15.7111 2.27216 11.6117 2.27216 7.65865 3.15584L7.20561 3.25711C6.32714 3.45386 5.5204 3.89024 4.87496 4.5178C4.22952 5.14536 3.77066 5.93954 3.54932 6.81214C2.55492 10.7306 2.55492 14.8353 3.54932 18.7537C3.77076 19.6265 4.22983 20.4208 4.87551 21.0484C5.5212 21.6759 6.32823 22.1122 7.20695 22.3087L7.32687 22.3354C7.52087 22.3788 7.69752 22.479 7.83424 22.6234C7.97095 22.7677 8.06153 22.9495 8.09437 23.1455L8.48612 25.488L10.9805 23.2561C11.0801 23.1667 11.1967 23.0983 11.3232 23.0548C11.4498 23.0113 11.5838 22.9937 11.7174 23.003C14.381 23.1919 17.058 22.9922 19.6642 22.41L20.1159 22.3087C20.9946 22.1122 21.8016 21.6759 22.4473 21.0484C23.093 20.4208 23.5521 19.6265 23.7735 18.7537C24.7676 14.8363 24.7676 10.7309 23.7735 6.81214C23.5521 5.93937 23.093 5.14507 22.4473 4.5175C21.8016 3.88992 20.9946 3.45364 20.1159 3.25711L19.6642 3.15584Z" fill="#6667AB"/>
</svg>
