<svg width="144" height="48" viewBox="0 0 144 48" fill="none" xmlns="http://www.w3.org/2000/svg">
<path d="M11.412 1.67376C1.69901 5.99726 -2.65911 17.3516 1.67907 27.0331C6.01759 36.715 27.0967 49.9657 32.061 47.7556C34.9697 46.4607 37.4355 38.5491 38.3524 30.0724H19.4512C15.2167 30.1416 11.1478 27.7334 9.31119 23.6358C6.85545 18.1552 9.32249 11.7279 14.8203 9.28063C16.2992 8.62211 17.8473 8.31901 19.3675 8.33392V8.33292H35.1472C29.9901 0.830387 20.0398 -2.16712 11.4117 1.67376H11.412Z" fill="#EB5A6E"/>
<path d="M23.5109 19.2397L27.6989 25.4037H23.0972L20.8083 21.7635L18.4708 25.4037H13.9907L18.1056 19.2155L14.0396 13.0032H18.6656L20.8083 16.692L23.1703 13.0032H27.65L23.5109 19.24V19.2397ZM37.6083 14.3378V13.0032H41.3821V25.4037H37.6083V24.0932C36.6182 25.1612 35.3603 25.6948 33.8344 25.6948C32.0976 25.6948 30.6655 25.0843 29.5371 23.8627C28.4091 22.6413 27.8448 21.0841 27.8448 19.191C27.8448 17.2982 28.4131 15.745 29.5491 14.5316C30.6854 13.3182 32.1298 12.7117 33.883 12.7117C35.3925 12.7117 36.6345 13.2536 37.6083 14.3375V14.3378ZM34.7109 22.1517C35.5221 22.1517 36.2041 21.8646 36.7561 21.2902C37.3082 20.7161 37.5837 20.0082 37.5837 19.1668C37.5837 18.3579 37.3078 17.6706 36.7561 17.1041C36.2041 16.5377 35.5304 16.2548 34.7351 16.2548C33.9072 16.2548 33.2176 16.534 32.6656 17.0919C32.1135 17.6504 31.8377 18.35 31.8377 19.191C31.8377 20.0486 32.1099 20.7562 32.6533 21.3143C33.197 21.8728 33.8826 22.1514 34.7109 22.1514V22.1517ZM48.1997 25.4037H44.0606V13.0032H56.1372V25.4037H51.9981V16.6917H48.1997V25.4037ZM67.9699 14.3378V13.0032H71.7438V25.4037H67.9699V24.0932C66.9799 25.1612 65.7219 25.6948 64.1961 25.6948C62.4592 25.6948 61.0271 25.0843 59.8988 23.8627C58.7708 22.6413 58.2064 21.0841 58.2064 19.191C58.2064 17.2982 58.7748 15.745 59.9107 14.5316C61.0471 13.3182 62.4915 12.7117 64.2446 12.7117C65.7542 12.7117 66.9962 13.2536 67.9699 14.3375V14.3378ZM65.0725 22.1517C65.8838 22.1517 66.5658 21.8646 67.1178 21.2902C67.6698 20.7161 67.9457 20.0082 67.9457 19.1668C67.9457 18.3579 67.6698 17.6706 67.1178 17.1041C66.5658 16.5377 65.8924 16.2548 65.0971 16.2548C64.2692 16.2548 63.5796 16.534 63.0275 17.0919C62.4755 17.6504 62.1996 18.35 62.1996 19.191C62.1996 20.0486 62.4718 20.7562 63.0152 21.3143C63.559 21.8728 64.2446 22.1514 65.0728 22.1514L65.0725 22.1517ZM84.2588 10.6126C83.3984 11.3811 82.2624 11.7653 80.8499 11.7653C79.4377 11.7653 78.3054 11.3811 77.4536 10.6126C76.6011 9.84407 76.1348 8.78837 76.0534 7.4458H79.1456C79.1456 8.90199 79.7139 9.62975 80.8499 9.62975C81.9536 9.62975 82.5299 8.90199 82.5788 7.4458H85.6464C85.5813 8.7887 85.1189 9.84407 84.2588 10.6126ZM78.0987 25.4037H74.4225V13.0032H78.2695V19.7008L83.4067 13.0032H87.0346V25.4037H83.1877V18.7544L78.0987 25.4037Z" fill="#6667AA"/>
<path d="M29.1397 47.8305C30.3668 48.0703 31.3705 48.0637 32.0615 47.756C34.9702 46.4611 37.4359 38.5495 38.3529 30.0727H35.6292C34.7126 38.5495 32.2466 46.4611 29.3378 47.756C29.275 47.7841 29.2079 47.8076 29.1397 47.8305ZM19.1293 30.0727C15.0115 30.0177 11.1014 27.6297 9.31132 23.6362C6.85557 18.1556 9.32262 11.7283 14.8204 9.281C16.2993 8.62247 17.8474 8.31938 19.3676 8.33428V8.33329H16.644V8.33428C15.1238 8.31938 13.5757 8.62214 12.0968 9.281C6.599 11.7283 4.13195 18.1556 6.5877 23.6362C8.42394 27.7337 12.4929 30.142 16.7277 30.0727H19.1293ZM32.4237 8.33329H35.1473C31.2528 2.66755 24.6241 -0.428007 17.896 0.0496592C23.647 0.458425 29.0567 3.43539 32.4234 8.33329H32.4237Z" fill="#D04757"/>
<path d="M98.6994 14.5387V13.2276H102.407V25.4091H98.6994V24.1218C97.7269 25.1709 96.4913 25.6953 94.992 25.6953C93.2861 25.6953 91.8789 25.0954 90.7708 23.8956C89.6628 22.6958 89.1084 21.1661 89.1084 19.3068C89.1084 17.4474 89.6664 15.9217 90.7828 14.7298C91.8988 13.5377 93.318 12.9421 95.0402 12.9421C96.5232 12.9421 97.7432 13.4744 98.6997 14.5394L98.6994 14.5387ZM95.8535 22.2145C96.6505 22.2145 97.3205 21.9323 97.8625 21.3681C98.4046 20.8043 98.6755 20.1087 98.6755 19.2826C98.6755 18.4879 98.4046 17.8125 97.8625 17.2563C97.3205 16.7001 96.6588 16.4219 95.8774 16.4219C95.0641 16.4219 94.3865 16.6962 93.8444 17.2444C93.3023 17.7929 93.0311 18.4803 93.0311 19.3064C93.0311 20.1488 93.2984 20.8441 93.8324 21.392C94.3669 21.9405 95.0402 22.2145 95.8535 22.2145ZM115.155 18.901C115.777 19.1395 116.267 19.5088 116.626 20.0093C116.985 20.5099 117.164 21.0939 117.164 21.7613C117.164 22.8419 116.786 23.72 116.028 24.3955C115.271 25.0709 114.286 25.4084 113.074 25.4084H105.038V13.2269H112.955C113.991 13.2269 114.848 13.5251 115.526 14.121C116.203 14.7169 116.542 15.4758 116.542 16.3974C116.542 17.4623 116.08 18.2964 115.155 18.9006V18.901ZM111.448 15.8972H109.032V18.0904H111.376C111.743 18.0904 112.046 17.9874 112.285 17.7807C112.524 17.574 112.643 17.3119 112.643 16.9939C112.643 16.6759 112.536 16.4139 112.321 16.2072C112.105 16.0009 111.814 15.8975 111.447 15.8975L111.448 15.8972ZM109.032 22.7389H111.711C112.11 22.7389 112.429 22.6236 112.667 22.393C112.907 22.1625 113.026 21.8806 113.026 21.5467C113.026 21.229 112.915 20.9587 112.691 20.7364C112.468 20.5138 112.174 20.4025 111.807 20.4025H109.032V22.7389ZM118.073 13.2273H129.769V16.8508H125.966V25.4088H121.876V16.8508H118.073V13.2273H118.073ZM137.327 25.6946C135.381 25.6946 133.779 25.0947 132.519 23.8949C131.26 22.6951 130.63 21.1813 130.63 19.3538C130.63 17.5104 131.256 15.9806 132.508 14.765C133.759 13.5493 135.366 12.9414 137.327 12.9414C139.288 12.9414 140.89 13.5493 142.134 14.765C143.378 15.981 144 17.5104 144 19.3538C144 21.2131 143.37 22.7349 142.111 23.9188C140.851 25.1027 139.256 25.6946 137.327 25.6946H137.327ZM137.327 22.2142C138.156 22.2142 138.841 21.9402 139.384 21.3917C139.926 20.8434 140.196 20.1481 140.196 19.3061C140.196 18.4958 139.926 17.8121 139.384 17.256C138.841 16.6998 138.164 16.4215 137.351 16.4215C136.537 16.4215 135.852 16.6998 135.294 17.256C134.736 17.8121 134.456 18.4958 134.456 19.3061C134.456 20.1485 134.732 20.8438 135.282 21.3917C135.832 21.9402 136.513 22.2142 137.327 22.2142Z" fill="#EB5A6E"/>
</svg>
