<svg width="80" height="44" viewBox="0 0 80 44" fill="none" xmlns="http://www.w3.org/2000/svg">
<path d="M10.4139 1.53438C1.55022 5.49785 -2.42669 15.9058 1.53245 24.7806C5.4916 33.6558 24.7269 45.8021 29.2574 43.7759C31.9117 42.589 34.1619 35.3367 34.9984 27.5663H17.7504C13.886 27.6297 10.1729 25.4224 8.49718 21.666C6.25609 16.642 8.50766 10.7504 13.5242 8.50705C14.8742 7.90311 16.2865 7.62577 17.6738 7.63946V7.63855H32.0735C27.3676 0.761212 18.2875 -1.98662 10.4139 1.53438Z" fill="#EB5A6E"/>
<path d="M21.4544 17.6368L25.2759 23.2871H21.0767L18.9878 19.9504L16.8547 23.2871H12.7666L16.5216 17.6145L12.8113 11.9199H17.0328L18.9882 15.3014L21.1437 11.9199H25.2318L21.4549 17.6368H21.4544ZM34.3187 13.1433V11.9199H37.7625V23.2871H34.3187V22.0856C33.4152 23.0645 32.2671 23.554 30.8748 23.554C29.2898 23.554 27.9827 22.9943 26.9535 21.8744C25.9238 20.7546 25.409 19.3273 25.409 17.5921C25.409 15.8569 25.9275 14.4333 26.9644 13.3212C28.0013 12.2087 29.3194 11.6526 30.919 11.6526C32.2967 11.6526 33.4298 12.1494 34.3187 13.1429V13.1433ZM31.6748 20.3062C32.4152 20.3062 33.0375 20.043 33.541 19.5166C34.0444 18.9902 34.2963 18.3416 34.2963 17.5702C34.2963 16.8285 34.0448 16.1986 33.541 15.6795C33.0375 15.1604 32.4225 14.9009 31.6967 14.9009C30.9413 14.9009 30.3117 15.1568 29.8082 15.6686C29.3048 16.1804 29.0529 16.8217 29.0529 17.593C29.0529 18.379 29.3012 19.0276 29.7973 19.5394C30.2934 20.0512 30.9194 20.3071 31.6748 20.3071V20.3062ZM43.9837 23.2871H40.2068V11.9199H51.2273V23.2871H47.4504V15.3014H43.9842V23.2871H43.9837ZM62.0249 13.1433V11.9199H65.4688V23.2871H62.0249V22.0856C61.1215 23.0645 59.9734 23.554 58.5811 23.554C56.996 23.554 55.6889 22.9943 54.6597 21.8744C53.6301 20.7546 53.1153 19.3273 53.1153 17.5921C53.1153 15.8569 53.6337 14.4333 54.6707 13.3212C55.7076 12.2087 57.0257 11.6526 58.6253 11.6526C60.003 11.6526 61.1361 12.1494 62.0249 13.1429V13.1433ZM59.3811 20.3062C60.1214 20.3062 60.7438 20.043 61.2472 19.5166C61.7507 18.9902 62.0026 18.3416 62.0026 17.5702C62.0026 16.8285 61.7511 16.1986 61.2472 15.6795C60.7438 15.1604 60.1287 14.9009 59.403 14.9009C58.6476 14.9009 58.0179 15.1568 57.5145 15.6686C57.0111 16.1804 56.7591 16.8217 56.7591 17.593C56.7591 18.379 57.0074 19.0276 57.5036 19.5394C57.9997 20.0512 58.6257 20.3071 59.3811 20.3071V20.3062ZM76.8893 9.72861C76.1043 10.4329 75.0673 10.785 73.7784 10.785C72.4896 10.785 71.4567 10.4329 70.679 9.72861C69.9013 9.02431 69.4753 8.05637 69.4011 6.82568H72.223C72.223 8.16037 72.7415 8.82771 73.7784 8.82771C74.7858 8.82771 75.3115 8.16037 75.3562 6.82568H78.1554C78.0961 8.05637 77.6738 9.02431 76.8893 9.72861ZM71.2676 23.2871H67.9131V11.9199H71.4235V18.0597L76.1115 11.9199H79.4219V23.2871H75.9115V17.1921L71.2676 23.2871Z" fill="#6667AA"/>
<path d="M47.1602 30.0157V29.061H49.8477V37.9322H47.1602V36.9948C46.4549 37.7588 45.5592 38.1406 44.4726 38.1406C43.2356 38.1406 42.2155 37.7037 41.4123 36.8301C40.6091 35.9562 40.2073 34.8422 40.2073 33.4884C40.2073 32.1341 40.6118 31.0234 41.421 30.1553C42.2301 29.2873 43.2589 28.8535 44.5072 28.8535C45.5824 28.8535 46.4667 29.2412 47.1602 30.0167V30.0157ZM45.0968 35.6054C45.6744 35.6054 46.1601 35.4001 46.5533 34.9891C46.9465 34.5786 47.1428 34.0718 47.1428 33.4701C47.1428 32.8913 46.9465 32.3996 46.5533 31.9945C46.1601 31.5895 45.6804 31.3869 45.1141 31.3869C44.5245 31.3869 44.0334 31.5867 43.6402 31.9858C43.247 32.3854 43.0507 32.8858 43.0507 33.4875C43.0507 34.101 43.2443 34.6073 43.6315 35.0065C44.0188 35.406 44.5072 35.6054 45.0968 35.6054ZM59.0895 33.1924C59.5401 33.3661 59.8959 33.6353 60.1556 33.9997C60.4158 34.3642 60.5456 34.7898 60.5456 35.2756C60.5456 36.0624 60.2709 36.702 59.7219 37.1937C59.1729 37.6854 58.459 37.9313 57.5806 37.9313H51.7549V29.0601H57.494C58.2453 29.0601 58.8667 29.2772 59.3579 29.711C59.849 30.1448 60.0946 30.6977 60.0946 31.3687C60.0946 32.1441 59.7593 32.7517 59.0891 33.1914L59.0895 33.1924ZM56.402 31.0051H54.6506V32.6021H56.35C56.6156 32.6021 56.8352 32.5268 57.0088 32.3763C57.1824 32.2258 57.269 32.0347 57.269 31.8034C57.269 31.5717 57.191 31.381 57.0352 31.2305C56.879 31.0804 56.668 31.0047 56.4024 31.0047L56.402 31.0051ZM54.6506 35.9876H56.5924C56.8812 35.9876 57.1127 35.9037 57.2858 35.7358C57.4594 35.568 57.546 35.3627 57.546 35.1196C57.546 34.8883 57.4649 34.6913 57.3031 34.5293C57.1414 34.3674 56.9277 34.2862 56.6616 34.2862H54.6502V35.9876H54.6506ZM61.2049 29.061H69.6835V31.6998H66.9267V37.9322H63.9617V31.6998H61.2049V29.061ZM75.163 38.1402C73.7525 38.1402 72.5912 37.7032 71.6777 36.8297C70.7647 35.9557 70.3077 34.8536 70.3077 33.5226C70.3077 32.1802 70.7615 31.0663 71.669 30.1809C72.5766 29.2955 73.7411 28.853 75.163 28.853C76.5849 28.853 77.7463 29.2959 78.6479 30.1809C79.5495 31.0663 80.0001 32.1802 80.0001 33.5226C80.0001 34.8765 79.5436 35.9849 78.6301 36.847C77.7171 37.7091 76.5608 38.1402 75.1626 38.1402H75.163ZM75.163 35.6054C75.764 35.6054 76.261 35.406 76.6542 35.0065C77.0474 34.6073 77.2437 34.101 77.2437 33.4875C77.2437 32.8972 77.0474 32.3996 76.6542 31.9945C76.261 31.5895 75.7699 31.3869 75.1803 31.3869C74.5908 31.3869 74.0937 31.5895 73.6892 31.9945C73.2846 32.3996 73.0823 32.8972 73.0823 33.4875C73.0823 34.101 73.2818 34.6073 73.6805 35.0065C74.0791 35.406 74.5735 35.6054 75.163 35.6054Z" fill="#EB5A6E"/>
<path d="M26.5911 43.8443C27.7105 44.0642 28.6267 44.0578 29.2573 43.7759C31.9116 42.589 34.1618 35.3367 34.9982 27.5663H32.513C31.6765 35.3367 29.4263 42.589 26.772 43.7759C26.7146 43.8015 26.6535 43.8234 26.5916 43.8443H26.5911ZM17.4564 27.5663C13.6986 27.5161 10.1304 25.327 8.49703 21.666C6.25595 16.642 8.50751 10.7504 13.5241 8.50707C14.874 7.90313 16.2864 7.62579 17.6737 7.63948V7.63857H15.1884V7.63948C13.8011 7.62579 12.3887 7.90359 11.0388 8.50707C6.02177 10.7504 3.77066 16.642 6.01175 21.666C7.68743 25.4224 11.4006 27.6297 15.2649 27.5663H17.4564ZM29.588 7.63857H32.0733C28.5192 2.44487 22.4702 -0.392364 16.331 0.0450809C21.5791 0.420034 26.5159 3.14871 29.588 7.63857Z" fill="#D04757"/>
</svg>
