<svg width="39" height="55" viewBox="0 0 39 55" fill="none" xmlns="http://www.w3.org/2000/svg">
<path d="M19.292 0.191528C8.83144 0.191528 0.371094 8.65187 0.371094 19.1124C0.371094 33.3031 19.292 54.2512 19.292 54.2512C19.292 54.2512 38.2129 33.3031 38.2129 19.1124C38.2129 8.65187 29.7525 0.191528 19.292 0.191528ZM19.292 25.8699C17.4998 25.8699 15.781 25.1579 14.5137 23.8907C13.2465 22.6234 12.5345 20.9046 12.5345 19.1124C12.5345 17.3202 13.2465 15.6014 14.5137 14.3342C15.781 13.0669 17.4998 12.355 19.292 12.355C21.0842 12.355 22.803 13.0669 24.0702 14.3342C25.3375 15.6014 26.0495 17.3202 26.0495 19.1124C26.0495 20.9046 25.3375 22.6234 24.0702 23.8907C22.803 25.1579 21.0842 25.8699 19.292 25.8699Z" fill="#EB5A6E"/>
</svg>
