<svg width="24" height="24" fill="#6667AB" xmlns="http://www.w3.org/2000/svg"><path d="M4.58 3.047c-.721.138-1.381.801-1.536 1.545-.062.3-.062 14.516 0 14.816.157.75.798 1.391 1.548 1.548.3.062 14.516.062 14.816 0a2.062 2.062 0 0 0 1.548-1.548c.062-.3.062-14.516 0-14.816-.159-.762-.818-1.411-1.573-1.549-.307-.056-14.508-.052-14.803.004M15.5 9.098c.215.126.402.367.465.598.054.203.024.531-.066.709-.037.074-1.033 1.104-2.213 2.289-2.336 2.346-2.336 2.345-2.766 2.345-.403 0-.513-.082-1.686-1.265-.586-.591-1.098-1.137-1.139-1.214-.052-.099-.074-.227-.074-.44-.001-.258.015-.327.112-.492.13-.222.369-.409.603-.473.203-.054.531-.024.709.066.074.038.437.367.805.733l.671.663 1.771-1.768c.975-.973 1.78-1.769 1.79-1.77.01 0 .09-.027.178-.06.239-.09.612-.055.84.079"/></svg>